<?xml version="1.0" encoding="utf-8"?>
<!-- Generator: Adobe Illustrator 27.5.0, SVG Export Plug-In . SVG Version: 6.00 Build 0)  -->
<svg version="1.1" id="Capa_1" xmlns="http://www.w3.org/2000/svg" xmlns:xlink="http://www.w3.org/1999/xlink" x="0px" y="0px"
	 viewBox="0 0 425.2 425.2" style="enable-background:new 0 0 425.2 425.2;" xml:space="preserve">
<radialGradient id="SVGID_1_" cx="212.6001" cy="212.6001" r="212.5986" gradientUnits="userSpaceOnUse">
	<stop  offset="0" style="stop-color:#FFFFFF"/>
	<stop  offset="0.3907" style="stop-color:#F6F6F3"/>
	<stop  offset="1" style="stop-color:#E3E1D7"/>
</radialGradient>
<rect x="0.002" y="0.001" style="fill:url(#SVGID_1_);" width="425.197" height="425.197"/>
<g>
	<g>
		<path style="fill:#C6C6C6;" d="M241.566,382.606c0,7.41-48.354,13.417-108,13.417c-59.647,0-108-6.007-108-13.417
			c0-7.409,48.353-13.416,108-13.416C193.212,369.19,241.566,375.197,241.566,382.606z"/>
		<path style="fill:#C6C6C6;" d="M390.381,382.606c0,7.41-31.514,13.417-70.388,13.417c-38.875,0-70.389-6.007-70.389-13.417
			c0-7.409,31.514-13.416,70.389-13.416C358.868,369.19,390.381,375.197,390.381,382.606z"/>
	</g>
	<g>
		<g>
			<rect x="76.9" y="242.542" style="fill:#130800;" width="120.778" height="84.392"/>
			<rect x="116.624" y="297.856" style="fill:#F8BB94;" width="31.885" height="18.964"/>
			<path style="fill:#DADADA;" d="M136.814,314.28c-6.687-2.13-12.28-6.315-13.128-13.664c-0.117-1.011,0.002-1.919,0.27-2.76
				h-7.332v18.964h31.885v-2.377C144.597,315.421,140.505,315.456,136.814,314.28z"/>
			<g>
				<path style="fill:#F8BB94;" d="M212.375,237.007c0,7.84-6.58,14.195-14.697,14.195c-8.118,0-14.698-6.355-14.698-14.195
					c0-7.841,6.58-14.196,14.698-14.196C205.795,222.811,212.375,229.166,212.375,237.007z"/>
				<g>
					<path style="fill:#DADADA;" d="M199.574,229.108c0,0,0.355-0.055,0.989-0.035c0.629,0.027,1.546,0.12,2.599,0.517
						c1.043,0.384,2.273,1.119,3.127,2.4c0.213,0.313,0.364,0.673,0.547,1.022c0.133,0.365,0.24,0.747,0.341,1.134l0.123,1.178
						c0.002,0.389-0.03,0.777-0.048,1.166c-0.05,0.731-0.246,1.512-0.462,2.21c-0.21,0.717-0.551,1.38-0.907,1.999
						c-0.73,1.232-1.747,2.202-2.755,2.736c-0.478,0.309-0.999,0.438-1.419,0.586c-0.448,0.089-0.825,0.178-1.145,0.191
						c-0.641,0.014-0.991,0-0.991,0s0.327-0.133,0.899-0.366c0.281-0.108,0.591-0.321,0.955-0.495
						c0.332-0.243,0.73-0.464,1.078-0.809c0.369-0.315,0.713-0.712,1.038-1.149c0.332-0.434,0.605-0.945,0.867-1.48
						c0.259-0.541,0.45-1.134,0.626-1.741c0.168-0.62,0.304-1.216,0.331-1.886l0.07-0.927l-0.063-0.896
						c-0.08-0.279-0.128-0.563-0.192-0.843c-0.115-0.258-0.19-0.533-0.324-0.775c-0.515-0.982-1.356-1.739-2.18-2.285
						c-0.832-0.538-1.627-0.89-2.192-1.116C199.92,229.213,199.574,229.108,199.574,229.108z"/>
				</g>
				<path style="fill:#DADADA;" d="M201.471,237.705c0,1.518-1.066,2.749-2.382,2.749c-1.314,0-2.381-1.231-2.381-2.749
					c0-1.519,1.067-2.749,2.381-2.749C200.404,234.956,201.471,236.186,201.471,237.705z"/>
			</g>
			<g>
				<path style="fill:#F8BB94;" d="M54.767,237.007c0,7.84,6.58,14.195,14.698,14.195c8.117,0,14.697-6.355,14.697-14.195
					c0-7.841-6.58-14.196-14.697-14.196C61.347,222.811,54.767,229.166,54.767,237.007z"/>
				<g>
					<path style="fill:#DADADA;" d="M67.568,229.108c0,0-0.356-0.055-0.989-0.035c-0.628,0.027-1.545,0.12-2.599,0.517
						c-1.042,0.384-2.272,1.119-3.126,2.4c-0.213,0.313-0.364,0.673-0.548,1.022c-0.133,0.365-0.239,0.747-0.341,1.134l-0.123,1.178
						c-0.001,0.389,0.03,0.777,0.048,1.166c0.05,0.731,0.245,1.512,0.462,2.21c0.21,0.717,0.551,1.38,0.907,1.999
						c0.73,1.232,1.747,2.202,2.756,2.736c0.478,0.309,0.997,0.438,1.418,0.586c0.447,0.089,0.825,0.178,1.145,0.191
						c0.641,0.014,0.991,0,0.991,0s-0.327-0.133-0.899-0.366c-0.282-0.108-0.591-0.321-0.956-0.495
						c-0.332-0.243-0.729-0.464-1.078-0.809c-0.368-0.315-0.712-0.712-1.038-1.149c-0.331-0.434-0.604-0.945-0.866-1.48
						c-0.258-0.541-0.45-1.134-0.625-1.741c-0.168-0.62-0.305-1.216-0.331-1.886l-0.071-0.927l0.063-0.896
						c0.079-0.279,0.129-0.563,0.193-0.843c0.115-0.258,0.189-0.533,0.323-0.775c0.515-0.982,1.357-1.739,2.181-2.285
						c0.832-0.538,1.627-0.89,2.192-1.116C67.223,229.213,67.568,229.108,67.568,229.108z"/>
				</g>
				<path style="fill:#DADADA;" d="M65.671,237.705c0,1.518,1.067,2.749,2.382,2.749c1.314,0,2.381-1.231,2.381-2.749
					c0-1.519-1.066-2.749-2.381-2.749C66.738,234.956,65.671,236.186,65.671,237.705z"/>
			</g>
			<path style="fill:#F8BB94;" d="M197.678,218.292c0,48.229-22.627,82.093-65.112,82.093c-42.483,0-65.113-33.864-65.113-82.093
				c0-48.231,23.492-87.326,65.977-87.326S197.678,170.061,197.678,218.292z"/>
			<path style="fill:#EDEDED;" d="M177.589,195.117c2.895,8.041,4.836,16.493,6.492,24.635c3.909,19.238-0.16,40.976-4.658,59.73
				c14.304-17.344,18.256-41.976,18.256-62.691c0-42.735-17.104-78.282-50.558-85.825c-0.825,0.454-18.779,14.688-19.614,15.157
				c0.215-0.121,18.449,12.084,20.249,13.142c6.963,4.088,13.738,8.69,18.778,15.101
				C171.395,180.546,174.904,187.654,177.589,195.117z"/>
			<path style="fill:#EDEDED;" d="M87.646,259.272c-8.645-23.785-10.822-50.024,1.947-72.677
				c13.185-23.39,27.891-34.705,45.7-46.473c-43.563,0-67.84,32.991-67.84,78.17c0,45.024,19.728,77.517,56.913,81.639
				C106.826,293.028,94.446,277.985,87.646,259.272z"/>
			<path style="fill:#F8BB94;" d="M117.263,316.031c0,0-40.441,5.348-54.98,17.93c-14.816,12.82-19.198,23.903-24.536,49.236h94.18
				h1.278h94.18c-5.338-25.333-9.72-36.416-24.536-49.236c-14.538-12.582-54.979-17.93-54.979-17.93H117.263z"/>
			<path style="fill:#E74645;" d="M187.256,362.02l-10.649-39.7c-6.446-2.14-7.993-2.2-13.823-3.448
				c0,0,16.255,48.205-24.204,52.631h-6.015h-0.974h-6.014c-40.458-4.426-24.204-52.631-24.204-52.631
				c-5.83,1.248-7.378,1.309-13.823,3.448L76.9,362.02c-3.627,12.858-2.222,21.178-2.222,21.178h56.913h0.974h56.914
				C189.478,383.197,190.883,374.877,187.256,362.02z"/>
			<path style="fill:#DADADA;" d="M159.216,361.625c9.063-1.295,14.562-13.856,14.557-21.514
				c-0.005-8.891-3.291-14.737-7.741-20.567c-0.948-0.192-1.997-0.404-3.248-0.673C162.783,318.871,171.993,346.241,159.216,361.625
				z"/>
			<path style="fill:#DADADA;" d="M187.477,365.54c-9.031,15.12-35.506,15.852-50.784,15.029c-7.57-0.407-15.691-1.346-23.065-3.896
				c-0.989-0.178-1.997-0.398-3.038-0.692c-10.881-3.077-19.803-9.342-22.914-20.614c-1.808-6.551-0.203-13.495,2.491-19.98
				c-0.154-1.243,0.064-2.517,0.803-3.595c1.478-2.153,2.788-4.409,4.254-6.558c0.377-0.67,0.751-1.333,1.12-1.977
				c0.673-1.178,1.552-1.945,2.514-2.406c0.169-0.129,0.354-0.23,0.536-0.331c0.293-0.478,0.59-0.952,0.891-1.42
				c-4.962,1.036-6.71,1.222-12.734,3.22L76.9,362.02c-3.627,12.858-2.222,21.178-2.222,21.178h114.8c0,0,1.208-7.195-1.534-18.535
				C187.781,364.951,187.647,365.258,187.477,365.54z"/>
			<g>
				<g>
					<path style="fill:#2D2D2C;" d="M111.549,216.895c0,3.594-2.912,6.507-6.506,6.507s-6.507-2.913-6.507-6.507
						c0-3.59,2.913-6.505,6.507-6.505S111.549,213.306,111.549,216.895z"/>
					<path style="fill:#FFFFFF;" d="M105.421,212.733c0.523,0.73-0.232,2.171-1.691,3.22c-1.459,1.049-3.067,1.31-3.59,0.581
						c-0.527-0.73,0.231-2.174,1.69-3.224C103.289,212.265,104.896,212.005,105.421,212.733z"/>
				</g>
				<g>
					<path style="fill:#2D2D2C;" d="M153.582,216.895c0,3.594,2.912,6.507,6.506,6.507c3.595,0,6.507-2.913,6.507-6.507
						c0-3.59-2.913-6.505-6.507-6.505C156.494,210.391,153.582,213.306,153.582,216.895z"/>
					<path style="fill:#FFFFFF;" d="M159.71,212.733c-0.524,0.73,0.232,2.171,1.691,3.22c1.458,1.049,3.066,1.31,3.59,0.581
						c0.526-0.73-0.231-2.174-1.69-3.224C161.842,212.265,160.234,212.005,159.71,212.733z"/>
				</g>
				
					<path style="fill:none;stroke:#2A1807;stroke-width:3.5475;stroke-linecap:round;stroke-linejoin:round;stroke-miterlimit:10;" d="
					M150.82,203.155c0,0,12.945-11.458,23.064,2.358"/>
				
					<path style="fill:none;stroke:#2A1807;stroke-width:3.5475;stroke-linecap:round;stroke-linejoin:round;stroke-miterlimit:10;" d="
					M114.313,203.155c0,0-12.944-11.458-23.064,2.358"/>
				<g>
					<g>
						<path style="fill:#DADADA;" d="M139.686,242.002c0,0,0.732,0.227,1.568,0.999c0.195,0.206,0.434,0.412,0.614,0.7
							c0.205,0.267,0.39,0.588,0.537,0.955c0.087,0.174,0.113,0.392,0.165,0.595c0.061,0.204,0.073,0.425,0.058,0.656
							c0.031,0.46-0.146,0.917-0.313,1.35c-0.252,0.372-0.49,0.792-0.831,1.023c-0.158,0.136-0.318,0.266-0.479,0.388
							c-0.166,0.103-0.335,0.182-0.502,0.263c-0.66,0.36-1.31,0.458-1.854,0.573c-0.27,0.059-0.53,0.043-0.753,0.055
							c-0.224,0.01-0.421,0.001-0.581-0.003c-0.322-0.014-0.505-0.038-0.505-0.038s0.152-0.118,0.419-0.295
							c0.133-0.086,0.293-0.195,0.479-0.298c0.181-0.116,0.398-0.218,0.612-0.357c0.211-0.146,0.437-0.3,0.682-0.439
							c0.256-0.13,0.461-0.332,0.693-0.501c0.11-0.091,0.237-0.167,0.346-0.258c0.089-0.104,0.181-0.203,0.278-0.296
							c0.226-0.179,0.299-0.406,0.454-0.598c0.066-0.216,0.184-0.414,0.183-0.651c0.059-0.222,0.001-0.482-0.017-0.735
							c-0.057-0.257-0.101-0.523-0.201-0.776c-0.077-0.255-0.196-0.495-0.281-0.73C140.035,242.677,139.686,242.002,139.686,242.002
							z"/>
					</g>
				</g>
				<g>
					<path style="fill:#FFFFFF;" d="M113.602,263.086h37.929c0,0-3.258,15.172-20.742,15.172
						C130.788,278.258,118.341,278.258,113.602,263.086z"/>
					<g>
						<g>
							<path style="fill:#DE857B;" d="M113.602,262.897c1.58-0.327,3.161-0.522,4.741-0.726c1.58-0.18,3.161-0.33,4.741-0.44
								c1.58-0.122,3.16-0.183,4.741-0.261c1.581-0.052,3.161-0.094,4.741-0.09c1.581,0.009,3.161,0.075,4.741,0.216
								c1.581,0.12,3.161,0.313,4.741,0.474c1.581,0.168,3.161,0.297,4.741,0.377c1.58,0.084,3.161,0.074,4.741,0.043l0.762-0.016
								l-0.178,0.738c-0.275,1.138-0.585,2.192-1.008,3.243c-0.388,1.059-0.872,2.083-1.393,3.099c-0.548,1-1.146,1.987-1.857,2.907
								c-0.328,0.483-0.72,0.914-1.115,1.346c-0.396,0.431-0.79,0.871-1.249,1.239c-0.444,0.385-0.89,0.777-1.364,1.128
								l-1.486,0.972c-0.487,0.346-1.042,0.557-1.57,0.827c-0.54,0.238-1.057,0.556-1.623,0.725
								c-1.119,0.365-2.233,0.822-3.396,0.994l-1.733,0.345c-0.579,0.096-1.162,0.106-1.744,0.153l-1.748,0.104
								c-0.725-0.017-1.353-0.088-1.948-0.196c-1.207-0.227-2.378-0.539-3.491-1.007c-0.564-0.213-1.109-0.465-1.64-0.747
								c-0.541-0.261-1.046-0.588-1.549-0.91c-0.516-0.303-0.984-0.675-1.455-1.04c-0.233-0.184-0.474-0.359-0.7-0.551l-0.639-0.621
								c-0.873-0.8-1.607-1.728-2.31-2.651c-0.635-0.98-1.286-1.933-1.738-2.992c-0.54-1.009-0.867-2.105-1.227-3.167
								c-0.335-1.07-0.5-2.19-0.712-3.268l-0.04-0.201L113.602,262.897z M113.952,263.329c0.492,0.855,0.926,1.716,1.431,2.53
								c0.606,0.887,1.114,1.809,1.801,2.605c0.339,0.398,0.607,0.843,0.972,1.21l1.051,1.121c0.753,0.683,1.463,1.399,2.298,1.952
								c0.397,0.301,0.802,0.585,1.232,0.832c0.42,0.26,0.832,0.529,1.283,0.729c0.439,0.22,0.873,0.445,1.336,0.607
								c0.448,0.195,0.901,0.371,1.369,0.507c0.921,0.302,1.868,0.531,2.805,0.663c0.475,0.085,0.934,0.122,1.295,0.131l1.51-0.074
								c0.502-0.031,1.012-0.021,1.509-0.067l1.482-0.208c1.009-0.081,1.938-0.421,2.912-0.64c0.493-0.1,0.926-0.34,1.396-0.502
								c0.455-0.192,0.944-0.325,1.365-0.587l1.322-0.69c0.428-0.252,0.823-0.558,1.253-0.818c0.439-0.252,0.819-0.579,1.211-0.897
								c0.399-0.311,0.813-0.614,1.167-0.981c0.763-0.684,1.454-1.454,2.107-2.265c0.64-0.822,1.225-1.699,1.716-2.63
								c0.489-0.922,0.915-1.927,1.173-2.896l0.584,0.722c-1.581-0.031-3.161-0.041-4.741,0.043c-1.58,0.08-3.161,0.209-4.741,0.377
								c-1.58,0.161-3.161,0.354-4.741,0.474c-1.58,0.142-3.16,0.207-4.741,0.216c-1.581,0.004-3.161-0.038-4.741-0.09
								c-1.58-0.078-3.161-0.139-4.741-0.261c-1.581-0.111-3.161-0.26-4.741-0.44C116.879,263.813,115.416,263.614,113.952,263.329z
								"/>
						</g>
					</g>
				</g>
				<g>
					<g>
						<path style="fill:#DADADA;" d="M127.597,234.956c0.121,0.491,0.177,0.958,0.212,1.415c0.029,0.456,0.034,0.902,0.008,1.336
							c-0.045,0.871-0.178,1.708-0.376,2.519c-0.399,1.622-1.047,3.147-1.952,4.572l0.053-0.16c-0.018-0.005-0.074,0.203-0.096,0.32
							c-0.027,0.14-0.042,0.282-0.049,0.423c-0.005,0.28,0.007,0.555,0.085,0.811c0.139,0.511,0.5,1.002,1.091,1.42
							c0.588,0.411,1.348,0.731,2.158,0.967c0.811,0.255,1.677,0.419,2.565,0.6c-0.857,0.297-1.747,0.485-2.678,0.576
							c-0.928,0.074-1.909,0.041-2.913-0.287c-0.991-0.309-2.046-1.013-2.662-2.096c-0.31-0.53-0.515-1.117-0.608-1.706
							c-0.045-0.295-0.071-0.59-0.073-0.888c0.005-0.319,0.003-0.548,0.088-0.978l0.053-0.161c0.295-1.662,0.847-3.225,1.648-4.691
							c0.401-0.732,0.868-1.439,1.423-2.112c0.274-0.338,0.58-0.663,0.908-0.98C126.819,235.542,127.176,235.237,127.597,234.956z"
							/>
					</g>
				</g>
			</g>
			<path style="fill:#432918;" d="M54.767,237.007c3.718-82.217,39.798-100.984,39.798-100.984l18.698,13.184
				c0,0-45.489,41.583-40.063,91.247l-4.86-6.179l-0.772-10.331C67.568,223.944,55.92,222.811,54.767,237.007z"/>
			<path style="fill:#432918;" d="M95.549,349.612c-16.119-6.558-15.402-24.917-15.402-24.917l-2.538-57.746
				c0,0-5.264-12.593-6.081-15.873c0,0-11.686,3.11-16.306-10.622c0,0-8.049,68.781,14.244,100.07
				C69.465,340.524,78.798,354.592,95.549,349.612z"/>
			<path style="fill:#FFFFFF;" d="M70.338,249.52c0,2.577-2.089,4.667-4.666,4.667c-2.577,0-4.666-2.09-4.666-4.667
				c0-2.577,2.088-4.665,4.666-4.665C68.249,244.855,70.338,246.942,70.338,249.52z"/>
			<g>
				<path style="fill:#EDEDED;" d="M102.78,154.79c0,0,26.115,45.971,84.194,45.842l-3.994-13.404
					C182.98,187.227,114.753,165.971,102.78,154.79z"/>
				<path style="fill:#EDEDED;" d="M102.78,154.79c0,0,26.115,45.971,84.194,45.842l-3.994-13.404
					C182.98,187.227,114.753,165.971,102.78,154.79z"/>
				<path style="fill:#C6C6C6;" d="M102.78,154.79c0,0,26.115,45.971,84.194,45.842l-3.994-13.404
					C182.98,187.227,114.753,165.971,102.78,154.79z"/>
			</g>
			<path style="fill:#432918;" d="M199.089,336.075c11.41,9.234,28.296,18.042,28.296,18.042c-17.068-6.4-20.084-46.78-20.084-46.78
				c-0.456,12.012,20.084,19.597,20.084,19.597c-19.251-25.286-10.519-81.049-10.519-81.049
				c10.156-88.496-17.292-109.862-17.292-109.862s-29.018-37.295-75.677-26.549c0,0-34.303,7.585-29.479,38.591
				c0,0,46.496,40.758,88.563,42.006c0,0,18.49,21.994,3.994,105.498C186.975,295.568,178.423,319.349,199.089,336.075z"/>
			<g>
				<path style="fill:#2A1807;" d="M182.98,190.07c0.764,0.822,1.405,1.768,2.018,2.718c0.584,0.967,1.181,1.942,1.651,2.971
					l0.757,1.529c0.243,0.514,0.443,1.042,0.668,1.564c0.426,1.05,0.903,2.095,1.231,3.178l1.077,3.236
					c0.345,1.085,0.611,2.185,0.904,3.284c0.265,1.103,0.596,2.2,0.807,3.313l0.657,3.34c0.201,1.116,0.48,2.229,0.616,3.352
					l0.439,3.372l0.436,3.378l0.273,3.386c0.162,2.257,0.418,4.522,0.428,6.783l0.137,6.788l0.032,1.698l-0.038,1.693
					c-0.022,1.129-0.051,2.259-0.098,3.388c-0.097,2.257-0.133,4.52-0.281,6.772l-0.518,6.75c-0.179,2.249-0.321,4.505-0.648,6.734
					l-0.861,6.705c-0.313,2.23-0.518,4.479-0.922,6.692l-2.371,13.29l-0.04,0.224l-0.068,0.184c-0.249,0.674-0.51,1.588-0.735,2.411
					c-0.226,0.848-0.426,1.71-0.588,2.581c-0.173,0.87-0.3,1.75-0.414,2.631c-0.108,0.883-0.181,1.77-0.236,2.659
					c-0.042,0.89-0.061,1.78-0.05,2.672c0.029,0.89,0.042,1.783,0.116,2.673c0.073,0.889,0.155,1.781,0.303,2.663
					c0.12,0.888,0.312,1.762,0.5,2.64c0.214,0.871,0.439,1.741,0.722,2.596c0.256,0.863,0.567,1.711,0.893,2.555
					c0.338,0.839,0.695,1.674,1.108,2.485c0.375,0.832,0.863,1.603,1.3,2.408c0.498,0.765,0.936,1.581,1.489,2.318l0.797,1.134
					l0.864,1.088c0.563,0.741,1.196,1.422,1.807,2.133c0.624,0.696,1.3,1.344,1.944,2.036c-0.766-0.542-1.556-1.068-2.297-1.655
					c-0.725-0.604-1.504-1.163-2.178-1.833l-1.047-0.976l-0.99-1.037c-0.681-0.678-1.266-1.439-1.896-2.171
					c-0.56-0.78-1.175-1.533-1.68-2.359c-0.543-0.803-1.032-1.641-1.505-2.493c-0.456-0.857-0.913-1.725-1.293-2.624
					c-0.395-0.895-0.732-1.813-1.056-2.739c-0.299-0.932-0.6-1.869-0.826-2.824c-0.254-0.949-0.44-1.915-0.616-2.883
					c-0.167-0.969-0.306-1.945-0.393-2.926c-0.081-0.982-0.131-1.965-0.152-2.951c-0.009-0.985,0.004-1.971,0.055-2.956
					c0.058-0.985,0.131-1.97,0.254-2.952c0.114-0.983,0.268-1.963,0.457-2.943c0.194-1.003,0.403-1.908,0.756-3.01l-0.108,0.408
					l1.787-13.227c0.365-2.195,0.537-4.409,0.814-6.613l0.756-6.618c0.29-2.203,0.384-4.418,0.616-6.624l0.602-6.624
					c0.176-2.209,0.241-4.42,0.367-6.631c0.069-2.21,0.345-4.422,0.339-6.631l0.145-6.632c0.044-1.107,0.018-2.21-0.016-3.313
					l-0.035-3.313l-0.035-3.317l-0.196-3.302c-0.14-2.202-0.219-4.415-0.475-6.604l-0.323-3.298c-0.1-1.103-0.317-2.18-0.471-3.274
					c-0.18-1.087-0.286-2.195-0.495-3.277l-0.653-3.247c-0.184-1.097-0.538-2.137-0.785-3.219c-0.141-0.534-0.259-1.08-0.419-1.608
					l-0.508-1.579C184.903,194.095,184.124,192.002,182.98,190.07z"/>
			</g>
			<g>
				<g>
					<path style="fill:#2A1807;" d="M216.417,249.229c0,0,0.128-0.993,0.368-2.855c0.12-0.931,0.268-2.079,0.442-3.429
						c0.182-1.35,0.302-2.907,0.503-4.64c0.193-1.734,0.395-3.653,0.527-5.754c0.151-2.098,0.364-4.359,0.452-6.785
						c0.059-1.21,0.119-2.46,0.181-3.746c0.023-1.287,0.045-2.611,0.069-3.969c0.036-1.357,0.043-2.749,0.021-4.174
						c-0.021-1.424,0.002-2.88-0.055-4.366c-0.155-5.945-0.676-12.362-1.577-19.081c-0.915-6.718-2.388-13.715-4.445-20.773
						c-2.031-7.066-4.872-14.132-8.41-20.906c-1.778-3.37-3.786-6.688-6.052-9.673c-2.282-2.962-5.002-5.724-7.869-8.321
						c-5.716-5.215-12.134-9.692-18.937-13.086c-3.405-1.69-6.896-3.122-10.423-4.304c-3.535-1.154-7.112-2.043-10.685-2.602
						c-7.144-1.118-14.224-1.145-20.845-0.235c-1.658,0.212-3.283,0.504-4.88,0.818c-1.524,0.283-3.041,0.751-4.526,1.218
						c-2.967,0.96-5.756,2.162-8.307,3.534c-5.097,2.754-9.226,6.244-12.035,10.016c-2.809,3.779-4.313,7.73-5.009,11.088
						c-0.688,3.371-0.741,6.129-0.695,7.994c0.04,0.934,0.076,1.652,0.126,2.134c0.04,0.483,0.061,0.733,0.061,0.733
						s-0.047-0.246-0.14-0.722c-0.1-0.476-0.215-1.186-0.356-2.119c-0.231-1.862-0.541-4.651-0.117-8.203
						c0.407-3.528,1.586-7.871,4.33-12.143c1.358-2.131,3.072-4.235,5.117-6.204c2.044-1.972,4.438-3.774,7.075-5.41
						c2.645-1.627,5.54-3.08,8.664-4.296c1.563-0.606,3.183-1.154,4.926-1.568c1.665-0.401,3.365-0.78,5.106-1.078
						c6.949-1.259,14.53-1.583,22.232-0.524c7.693,1.038,15.508,3.33,22.813,6.943c7.318,3.584,14.2,8.271,20.325,13.812
						c3.033,2.796,5.932,5.775,8.492,9.147c2.522,3.385,4.6,6.906,6.467,10.51c1.872,3.596,3.451,7.286,4.827,10.986
						c1.39,3.697,2.543,7.421,3.525,11.115c2.008,7.382,3.164,14.688,3.832,21.624c0.686,6.938,0.821,13.525,0.628,19.578
						c-0.213,6.052-0.642,11.581-1.308,16.442c-0.273,2.436-0.628,4.702-0.982,6.793c-0.318,2.093-0.691,4.006-1.039,5.73
						c-0.629,3.461-1.322,6.123-1.751,7.951C216.649,248.254,216.417,249.229,216.417,249.229z"/>
				</g>
			</g>
			<g>
				<path style="fill:#2A1807;" d="M56.441,216.895c0,0-0.009-0.364-0.026-1.047c-0.001-0.681-0.037-1.684-0.016-2.952
					c0.013-1.269,0.011-2.812,0.076-4.573c0.073-1.765,0.036-3.747,0.326-5.922c0.233-2.174,0.51-4.534,0.833-7.035
					c0.257-2.519,0.877-5.088,1.43-7.777c0.294-1.341,0.593-2.704,0.896-4.084c0.32-1.377,0.779-2.739,1.191-4.124
					c0.428-1.381,0.839-2.781,1.29-4.174c0.399-1.409,1.031-2.753,1.549-4.132c0.56-1.365,1.119-2.73,1.676-4.089
					c0.557-1.36,1.306-2.639,1.946-3.945c0.677-1.292,1.288-2.599,2.037-3.821c0.767-1.211,1.524-2.407,2.269-3.583
					c0.384-0.58,0.733-1.172,1.137-1.727c0.418-0.544,0.832-1.083,1.242-1.617c0.837-1.052,1.603-2.114,2.442-3.078
					c1.756-1.876,3.358-3.674,5.098-5.097c1.626-1.521,3.36-2.654,4.827-3.688c0.78-0.466,1.494-0.916,2.174-1.296
					c0.673-0.389,1.348-0.664,1.921-0.952c0.57-0.293,1.114-0.497,1.588-0.664c0.469-0.174,0.863-0.322,1.2-0.409
					c0.658-0.2,1.019-0.259,1.019-0.259s-0.319,0.18-0.882,0.557c-0.288,0.172-0.623,0.425-1.014,0.718
					c-0.391,0.293-0.844,0.611-1.318,1.023c-0.475,0.41-1.026,0.811-1.565,1.336c-0.536,0.529-1.137,1.064-1.762,1.648
					c-0.605,0.611-1.213,1.302-1.868,2c-0.673,0.677-1.3,1.477-1.962,2.294c-1.389,1.567-2.647,3.482-4.061,5.405
					c-0.663,0.999-1.295,2.065-1.966,3.127c-0.335,0.531-0.674,1.067-1.016,1.609c-0.334,0.547-0.617,1.138-0.933,1.711
					c-0.625,1.149-1.26,2.317-1.903,3.5c-0.346,0.575-0.584,1.221-0.878,1.836c-0.289,0.618-0.58,1.24-0.872,1.863
					c-0.567,1.256-1.208,2.484-1.734,3.778c-0.516,1.3-1.033,2.605-1.55,3.91c-1.144,2.565-1.955,5.271-2.878,7.889
					c-0.431,1.319-0.946,2.6-1.337,3.908c-0.382,1.312-0.759,2.608-1.129,3.883c-0.727,2.554-1.596,4.996-2.121,7.37
					c-0.6,2.361-1.196,4.597-1.768,6.666c-0.62,2.051-0.996,4.021-1.426,5.728c-0.391,1.718-0.792,3.208-1.107,4.436
					c-0.307,1.23-0.601,2.189-0.778,2.847C56.544,216.546,56.441,216.895,56.441,216.895z"/>
			</g>
			<path style="opacity:0.3;fill:#FFFFFF;" d="M78.169,177.167c3.38-3.369,8.871-5.176,13.446-5.847
				c-5.802,5.255-10.436,8.707-15.545,18.166c-2.25,4.164-11.844,21.98-13.885,26.189l9.344-29.416c0,0-3.349,1.635-4.3,4.631
				c0,0,6.198-34.614,22.385-40.267C89.614,150.623,78.903,167.238,78.169,177.167z"/>
			<path style="opacity:0.3;fill:#FFFFFF;" d="M192.102,192.901c0,0,15.981,24.678,6.755,51.546c0,0,7.605-15.228,8.635-33.635
				c0,0,3.366-8.041,5.319-1.683c0,0,4.855-8.209-0.704-24.311c0,0,3.788,3.005-5.207,11.796
				C206.9,196.614,198.941,190.319,192.102,192.901z"/>
			<path style="opacity:0.3;fill:#FFFFFF;" d="M188.172,138.769c1.133,1.113-2.271-3.482-3.382-4.646
				c-2.343-2.451-4.819-4.802-7.83-6.381c-6.34-3.329-12.558-6.167-19.345-8.529c-3.454-1.201-6.868-2.636-10.538-2.626
				c-3.36,0.01-8.151-0.431-11.148,1.283c0.984,1.713,5.612,1.533,7.471,2.085c4.498,1.332,9.775,2.978,13.543,5.78
				c-5.655,0.631-11.555-0.47-17.07,0.887c2.21,1.027,4.931,1.134,7.289,1.83c2.758,0.813,5.489,1.865,8.225,2.683
				c4.961,1.48,9.786,3.473,14.375,5.676c0,0,5.173,1.444,9.96,1.622c0,0-3.399-2.298-10.112-6.867
				C169.61,131.564,178.194,128.977,188.172,138.769z"/>
			<path style="opacity:0.3;fill:#FFFFFF;" d="M150.794,137.966c6.451-1.576,12.912,3.785,19.303,5.338
				c6.689,1.623,11.938,1.986,18.466,1.694c-1.673,3.881-5.835,5.011-8.562,7.487c8.314,2.563,16.02,4.455,23.62-0.764
				c-3.325,4.461-6.952,10.677-13.402,11.184c7.028,1.618,16.066,1.571,18.169-7.093c1.099,6.948-4.857,14.02-10.907,16.567
				c0,0-19.716,10.814-59.131-6.682c0,0-22.681-11.104-33.309-32.917c0,0,6.166,6.058,18.033,7.678c0,0-7.16-11.03-1.95-21.629
				C121.126,118.83,129.892,143.071,150.794,137.966z"/>
			<path style="opacity:0.3;fill:#FFFFFF;" d="M197.751,261.408c0,0-13.912,48.989,3.495,56.397c0,0-10.084-15.407-0.023-24.044
				c0,0,2.016,10.956,10.153,12.926c0,0-9.588-40.6,1.163-64.928c0,0-15.858,16.729-9.161,42.087
				C203.378,283.847,194.289,275.69,197.751,261.408z"/>
			<path style="opacity:0.3;fill:#FFFFFF;" d="M73.2,263.086c0,0-2.628,66.68,6.86,77.123c0,0-19.146-12.009-19.055-39.824
				c0,0,1.361,14.186,7.048,12.642L73.2,263.086z"/>
		</g>
		<g>
			<g>
				<path d="M128.941,210.658c-4.631-5.203-17.612-6.524-17.612-6.524c-26.364-2.533-29.694,3.578-29.694,3.578l-7.195,1.2
					l0.687,8.303l5.678-0.366l1.624,11.116c2.498,15.008,18.452,14.094,18.452,14.094c23.934,1.115,26.476-19.97,26.476-19.97
					c2.633-5.079,8.885-1.967,8.885-1.967v-7.301C130.564,212.821,128.941,210.658,128.941,210.658z M123.397,227.489
					c0,0-6.352,15.887-29.342,10.751c0,0-7.607-0.915-9.6-13.118c0,0-5.272-16.628,10.95-18.253c0,0,25.285-0.268,28.666,4.869
					C124.073,211.738,127.855,214.645,123.397,227.489z"/>
				<path d="M183.499,207.712c0,0-3.332-6.111-29.693-3.578c0,0-12.984,1.321-17.616,6.524c0,0-1.618,2.163-7.3,2.163v7.301
					c0,0,6.256-3.112,8.891,1.967c0,0,2.537,21.085,26.468,19.97c0,0,15.954,0.914,18.456-14.094l1.624-11.116l5.682,0.366
					l0.684-8.303L183.499,207.712z M180.678,225.122c-2,12.203-9.603,13.118-9.603,13.118
					c-22.984,5.136-29.339-10.751-29.339-10.751c-4.467-12.845-0.674-15.751-0.674-15.751c3.376-5.138,28.66-4.869,28.66-4.869
					C185.947,208.494,180.678,225.122,180.678,225.122z"/>
			</g>
			<path style="opacity:0.3;fill:#FFFFFF;" d="M123.397,227.489c0,0-6.352,15.887-29.342,10.751c0,0-7.607-0.915-9.6-13.118
				c0,0-5.272-16.628,10.95-18.253c0,0,25.285-0.268,28.666,4.869C124.073,211.738,127.855,214.645,123.397,227.489z"/>
			<path style="opacity:0.3;fill:#FFFFFF;" d="M141.201,211.738c3.381-5.138,28.667-4.869,28.667-4.869
				c16.222,1.625,10.95,18.253,10.95,18.253c-1.992,12.203-9.599,13.118-9.599,13.118c-22.99,5.136-29.342-10.751-29.342-10.751
				C137.418,214.645,141.201,211.738,141.201,211.738z"/>
			<path style="opacity:0.2;fill:#FFFFFF;" d="M91.249,207.781c-11.041,3.853-6.792,17.341-6.792,17.341
				c1.992,12.203,9.6,13.118,9.6,13.118c10.253,2.291,17.18,0.394,21.725-2.404C107.653,226.444,99.246,217.286,91.249,207.781z"/>
			<g>
				<path style="opacity:0.2;fill:#FFFFFF;" d="M154.419,207.609c-5.968,0.649-11.726,1.86-13.218,4.129
					c0,0-3.783,2.906,0.675,15.751c0,0,6.352,15.887,29.342,10.751c0,0,1.008-0.128,2.38-0.865
					C167.156,227.483,160.232,217.878,154.419,207.609z"/>
			</g>
		</g>
	</g>
	<g>
		<path style="fill:#C6C6C6;" d="M369.321,381.634c0,1.648-1.338,2.986-2.989,2.986h-92.68c-1.651,0-2.986-1.338-2.986-2.986
			V216.679c0-1.65,1.334-2.987,2.986-2.987h92.68c1.651,0,2.989,1.337,2.989,2.987V381.634z"/>
		<path style="fill:#191D23;" d="M368.362,380.533c0,1.624-1.315,2.939-2.936,2.939h-90.867c-1.625,0-2.941-1.315-2.941-2.939
			V217.777c0-1.623,1.317-2.938,2.941-2.938h90.867c1.621,0,2.936,1.315,2.936,2.938V380.533z"/>
		<path style="fill:#B2B2B2;" d="M348.098,374.272c-7.931-0.362-16.055-3.094-22.573-7.632
			c-30.859-21.48-39.038-65.406-42.963-100.167c-0.576-5.114-5.829-51.634,2.021-51.634h-10.025c-1.625,0-2.941,1.315-2.941,2.938
			v162.756c0,1.624,1.317,2.939,2.941,2.939h90.867c1.621,0,2.936-1.315,2.936-2.939v-11.984
			C362.385,372.454,355.267,374.601,348.098,374.272z"/>
		<rect x="278.481" y="225.79" style="fill:#00B1C3;" width="83.021" height="140.387"/>
		<path style="fill:#C6C6C6;" d="M328.943,219.582c0,0.773-0.625,1.401-1.402,1.401h-15.098c-0.777,0-1.406-0.628-1.406-1.401l0,0
			c0-0.774,0.628-1.404,1.406-1.404h15.098C328.318,218.178,328.943,218.808,328.943,219.582L328.943,219.582z"/>
		<path style="fill:#C6C6C6;" d="M334.489,219.582c0,1.181-0.958,2.139-2.138,2.139c-1.182,0-2.137-0.958-2.137-2.139
			c0-1.182,0.955-2.141,2.137-2.141C333.531,217.441,334.489,218.4,334.489,219.582z"/>
		<path style="fill:#181C21;" d="M333.419,219.582c0,0.591-0.478,1.068-1.069,1.068c-0.591,0-1.068-0.478-1.068-1.068
			c0-0.592,0.477-1.069,1.068-1.069C332.941,218.513,333.419,218.99,333.419,219.582z"/>
		<g>
			<g>
				<path style="fill:#181C21;" d="M313.939,219.108c0,0.262-0.211,0.474-0.477,0.474c-0.261,0-0.473-0.212-0.473-0.474
					c0-0.261,0.212-0.473,0.473-0.473C313.728,218.636,313.939,218.848,313.939,219.108z"/>
				<path style="fill:#181C21;" d="M315.119,219.108c0,0.262-0.209,0.474-0.472,0.474c-0.26,0-0.474-0.212-0.474-0.474
					c0-0.261,0.214-0.473,0.474-0.473C314.91,218.636,315.119,218.848,315.119,219.108z"/>
				<path style="fill:#181C21;" d="M316.302,219.108c0,0.262-0.209,0.474-0.472,0.474c-0.263,0-0.475-0.212-0.475-0.474
					c0-0.261,0.211-0.473,0.475-0.473C316.093,218.636,316.302,218.848,316.302,219.108z"/>
				<path style="fill:#181C21;" d="M317.489,219.108c0,0.262-0.214,0.474-0.476,0.474c-0.261,0-0.472-0.212-0.472-0.474
					c0-0.261,0.211-0.473,0.472-0.473C317.274,218.636,317.489,218.848,317.489,219.108z"/>
				<path style="fill:#181C21;" d="M318.669,219.108c0,0.262-0.213,0.474-0.472,0.474c-0.263,0-0.473-0.212-0.473-0.474
					c0-0.261,0.21-0.473,0.473-0.473C318.456,218.636,318.669,218.848,318.669,219.108z"/>
				<path style="fill:#181C21;" d="M319.851,219.108c0,0.262-0.209,0.474-0.471,0.474c-0.261,0-0.474-0.212-0.474-0.474
					c0-0.261,0.213-0.473,0.474-0.473C319.642,218.636,319.851,218.848,319.851,219.108z"/>
				<path style="fill:#181C21;" d="M321.035,219.108c0,0.262-0.208,0.474-0.473,0.474c-0.26,0-0.472-0.212-0.472-0.474
					c0-0.261,0.212-0.473,0.472-0.473C320.826,218.636,321.035,218.848,321.035,219.108z"/>
				<path style="fill:#181C21;" d="M322.219,219.108c0,0.262-0.213,0.474-0.473,0.474c-0.262,0-0.47-0.212-0.47-0.474
					c0-0.261,0.208-0.473,0.47-0.473C322.006,218.636,322.219,218.848,322.219,219.108z"/>
				<path style="fill:#181C21;" d="M323.401,219.108c0,0.262-0.209,0.474-0.473,0.474c-0.26,0-0.472-0.212-0.472-0.474
					c0-0.261,0.212-0.473,0.472-0.473C323.192,218.636,323.401,218.848,323.401,219.108z"/>
				<path style="fill:#181C21;" d="M324.585,219.108c0,0.262-0.211,0.474-0.474,0.474c-0.262,0-0.473-0.212-0.473-0.474
					c0-0.261,0.211-0.473,0.473-0.473C324.374,218.636,324.585,218.848,324.585,219.108z"/>
				<path style="fill:#181C21;" d="M325.769,219.108c0,0.262-0.213,0.474-0.474,0.474c-0.262,0-0.472-0.212-0.472-0.474
					c0-0.261,0.21-0.473,0.472-0.473C325.556,218.636,325.769,218.848,325.769,219.108z"/>
				<path style="fill:#181C21;" d="M326.952,219.108c0,0.262-0.214,0.474-0.474,0.474c-0.261,0-0.471-0.212-0.471-0.474
					c0-0.261,0.21-0.473,0.471-0.473C326.737,218.636,326.952,218.848,326.952,219.108z"/>
			</g>
			<g>
				<path style="fill:#181C21;" d="M313.346,220.054c0,0.262-0.213,0.474-0.475,0.474c-0.261,0-0.473-0.212-0.473-0.474
					c0-0.259,0.212-0.472,0.473-0.472C313.133,219.582,313.346,219.795,313.346,220.054z"/>
				<path style="fill:#181C21;" d="M314.53,220.054c0,0.262-0.213,0.474-0.474,0.474c-0.264,0-0.473-0.212-0.473-0.474
					c0-0.259,0.209-0.472,0.473-0.472C314.317,219.582,314.53,219.795,314.53,220.054z"/>
				<path style="fill:#181C21;" d="M315.711,220.054c0,0.262-0.211,0.474-0.472,0.474c-0.263,0-0.472-0.212-0.472-0.474
					c0-0.259,0.21-0.472,0.472-0.472C315.5,219.582,315.711,219.795,315.711,220.054z"/>
				<path style="fill:#181C21;" d="M316.896,220.054c0,0.262-0.211,0.474-0.476,0.474c-0.259,0-0.47-0.212-0.47-0.474
					c0-0.259,0.211-0.472,0.47-0.472C316.684,219.582,316.896,219.795,316.896,220.054z"/>
				<path style="fill:#181C21;" d="M318.078,220.054c0,0.262-0.213,0.474-0.471,0.474c-0.265,0-0.476-0.212-0.476-0.474
					c0-0.259,0.211-0.472,0.476-0.472C317.865,219.582,318.078,219.795,318.078,220.054z"/>
				<path style="fill:#181C21;" d="M319.262,220.054c0,0.262-0.212,0.474-0.475,0.474c-0.262,0-0.472-0.212-0.472-0.474
					c0-0.259,0.21-0.472,0.472-0.472C319.05,219.582,319.262,219.795,319.262,220.054z"/>
				<path style="fill:#181C21;" d="M320.444,220.054c0,0.262-0.212,0.474-0.473,0.474c-0.263,0-0.474-0.212-0.474-0.474
					c0-0.259,0.211-0.472,0.474-0.472C320.232,219.582,320.444,219.795,320.444,220.054z"/>
				<path style="fill:#181C21;" d="M321.625,220.054c0,0.262-0.21,0.474-0.472,0.474c-0.262,0-0.473-0.212-0.473-0.474
					c0-0.259,0.211-0.472,0.473-0.472C321.416,219.582,321.625,219.795,321.625,220.054z"/>
				<path style="fill:#181C21;" d="M322.81,220.054c0,0.262-0.21,0.474-0.473,0.474c-0.262,0-0.473-0.212-0.473-0.474
					c0-0.259,0.21-0.472,0.473-0.472C322.6,219.582,322.81,219.795,322.81,220.054z"/>
				<path style="fill:#181C21;" d="M323.994,220.054c0,0.262-0.21,0.474-0.472,0.474s-0.475-0.212-0.475-0.474
					c0-0.259,0.212-0.472,0.475-0.472S323.994,219.795,323.994,220.054z"/>
				<path style="fill:#181C21;" d="M325.179,220.054c0,0.262-0.214,0.474-0.477,0.474c-0.26,0-0.473-0.212-0.473-0.474
					c0-0.259,0.213-0.472,0.473-0.472C324.965,219.582,325.179,219.795,325.179,220.054z"/>
				<path style="fill:#181C21;" d="M326.359,220.054c0,0.262-0.213,0.474-0.472,0.474c-0.264,0-0.472-0.212-0.472-0.474
					c0-0.259,0.208-0.472,0.472-0.472C326.147,219.582,326.359,219.795,326.359,220.054z"/>
				<path style="fill:#181C21;" d="M327.582,220.054c0,0.262-0.21,0.474-0.475,0.474c-0.258,0-0.471-0.212-0.471-0.474
					c0-0.259,0.213-0.472,0.471-0.472C327.373,219.582,327.582,219.795,327.582,220.054z"/>
			</g>
		</g>
		<g>
			<rect x="307.464" y="371.074" style="fill:#DADADA;" width="25.053" height="6.214"/>
			<path style="fill:#B2B2B2;" d="M331.812,374.865c-1.906,1.08-4.157,1.471-6.32,1.615c-2.167,0.146-4.357,0.051-6.506-0.251
				c-2.307-0.324-4.867-0.83-6.833-2.141c-1.199-0.8-1.957-1.83-2.353-3.015h-2.336v6.214h25.053v-2.885
				C332.298,374.571,332.063,374.728,331.812,374.865z"/>
		</g>
		<g>
			<g>
				<path style="fill:#576170;" d="M349.017,372.044l-5.393-0.085l-0.008,0.743l5.387,0.085c0.956,0.014,1.723,0.804,1.706,1.761
					l-0.004,0.228c-0.01,0.956-0.801,1.724-1.758,1.708l-6.188-0.096l-0.012,0.741l6.188,0.096c1.363,0.023,2.497-1.072,2.516-2.438
					l0.003-0.229C351.475,373.193,350.38,372.065,349.017,372.044z"/>
			</g>
			<polygon style="fill:#576170;" points="345.509,370.423 345.454,373.859 342.823,372.278 			"/>
		</g>
		<g>
			<g>
				<path style="fill:#576170;" d="M295.367,378.401l-7.141-0.057l0.045-6.046l7.145,0.056L295.367,378.401z M288.854,377.721
					l5.89,0.047l0.037-4.788l-5.888-0.047L288.854,377.721z"/>
			</g>
			<g>
				<path style="fill:#576170;" d="M297.479,376.064l-7.142-0.055l0.044-6.045l7.145,0.055L297.479,376.064z M290.968,375.384
					l5.887,0.048l0.04-4.79l-5.891-0.044L290.968,375.384z"/>
			</g>
		</g>
		<path style="fill:#DADADA;" d="M331.283,229.805l1.616-0.066l1.616-0.061c1.076-0.039,2.155-0.076,3.232-0.109l3.233-0.102
			c1.077-0.037,2.155-0.065,3.229-0.092l6.465-0.17l6.462-0.133l0.719-0.015l0.016,0.748l0.079,3.916l0.066,3.917l0.114,7.834
			l0.085,7.835l0.062,7.833l0.041,7.834l0.016,7.834l-0.005,7.833l-0.002,3.916l-0.018,3.918l-0.044,7.832l-0.068,7.836
			l-0.042,3.916l-0.053,3.917l-0.12,7.833l-0.158,7.835l-0.081,3.916l-0.102,3.918c-0.068,2.61-0.133,5.222-0.223,7.834
			c-0.076,2.612-0.173,5.222-0.283,7.833c-0.107-2.611-0.203-5.221-0.279-7.833c-0.089-2.612-0.156-5.224-0.221-7.834l-0.107-3.918
			l-0.079-3.916l-0.156-7.835l-0.119-7.833l-0.055-3.917l-0.04-3.916l-0.069-7.836l-0.044-7.832l-0.018-3.918l-0.007-3.916
			l-0.005-7.833l0.021-7.834l0.038-7.834l0.063-7.833l0.086-7.835l0.111-7.834l0.066-3.917l0.084-3.916l0.729,0.732l-6.462-0.134
			l-6.465-0.167c-1.075-0.029-2.153-0.057-3.229-0.093l-3.233-0.103c-1.077-0.033-2.156-0.07-3.232-0.111l-1.616-0.06
			L331.283,229.805z"/>
		<rect x="284.069" y="236.018" style="fill:#FFFFFF;" width="71.844" height="98.937"/>
		<g>
			<rect x="290.512" y="337.375" style="fill:#1A7290;" width="18.347" height="15.221"/>
			<rect x="310.476" y="337.376" style="fill:#E74645;" width="18.351" height="15.22"/>
			<g>
				<path style="fill:#FFFFFF;" d="M304.928,340.501h-10.484c-0.621,0-1.121,0.501-1.121,1.121v6.727c0,0.619,0.5,1.122,1.121,1.122
					h10.484c0.622,0,1.125-0.503,1.125-1.122v-6.727C306.053,341.002,305.55,340.501,304.928,340.501z M294.378,341.786v-0.497
					h2.539v0.497H294.378z M299.717,348.373c-1.819,0-3.293-1.517-3.293-3.389c0-1.872,1.474-3.39,3.293-3.39
					c1.815,0,3.286,1.518,3.286,3.39C303.003,346.856,301.533,348.373,299.717,348.373z M304.302,342.348
					c-0.29,0-0.526-0.237-0.526-0.53c0-0.29,0.237-0.528,0.526-0.528c0.294,0,0.528,0.238,0.528,0.528
					C304.831,342.11,304.596,342.348,304.302,342.348z"/>
				<path style="fill:#FFFFFF;" d="M299.685,341.856c-1.677,0-3.035,1.4-3.035,3.128c0,1.728,1.358,3.129,3.035,3.129
					c1.681,0,3.041-1.401,3.041-3.129C302.726,343.257,301.366,341.856,299.685,341.856z M299.685,347.286
					c-1.233,0-2.231-1.031-2.231-2.302s0.998-2.3,2.231-2.3c1.234,0,2.235,1.029,2.235,2.3S300.919,347.286,299.685,347.286z"/>
			</g>
			<g>
				<g>
					<path style="fill:#FFFFFF;" d="M324.625,349.586h-9.951c-0.798,0-1.448-0.654-1.448-1.452v-6.297c0-0.798,0.65-1.45,1.448-1.45
						h9.951c0.802,0,1.448,0.652,1.448,1.45v6.297C326.074,348.932,325.427,349.586,324.625,349.586z M314.674,341.143
						c-0.379,0-0.691,0.311-0.691,0.694v6.297c0,0.383,0.313,0.694,0.691,0.694h9.951c0.384,0,0.695-0.311,0.695-0.694v-6.297
						c0-0.383-0.311-0.694-0.695-0.694H314.674z"/>
				</g>
				<g>
					<polygon style="fill:#FFFFFF;" points="319.413,346.163 313.903,341.688 314.379,341.103 319.419,345.193 325.073,340.738 
						325.543,341.331 					"/>
				</g>
			</g>
			<rect x="330.846" y="337.375" style="fill:#95C11F;" width="18.347" height="15.221"/>
			<path style="fill:#FFFFFF;" d="M343.738,350.304c0,0-2.142,2.126-6.585-3.09c0,0-4.833-5.111-0.304-7.764
				c0,0,1.579-0.622,2.246,0.257c0,0,2.213,2.389-0.566,3.65c0,0-2.33,1.207,0.723,3.757c0,0,1.305,1.275,2.372-0.599
				c0,0,1.084-2.465,3.04,0.159C344.663,346.675,346.168,348.351,343.738,350.304z"/>
		</g>
		<g>
			<g>
				<rect x="298.741" y="286.476" style="fill:#422700;" width="41.627" height="29.087"/>
				<rect x="314.5" y="305.539" style="fill:#F8BB94;" width="10.984" height="6.538"/>
				<path style="fill:#DADADA;" d="M321.456,311.202c-2.305-0.736-4.233-2.178-4.525-4.71c-0.04-0.349,0-0.661,0.097-0.953H314.5
					v6.538h10.984v-0.82C324.138,311.594,322.729,311.605,321.456,311.202z"/>
				<g>
					<path style="fill:#F8BB94;" d="M347.497,284.567c0,2.704-2.266,4.892-5.064,4.892c-2.8,0-5.064-2.188-5.064-4.892
						c0-2.7,2.265-4.892,5.064-4.892C345.23,279.676,347.497,281.867,347.497,284.567z"/>
					<g>
						<path style="fill:#DADADA;" d="M343.087,281.847c0,0,0.121-0.021,0.34-0.013c0.215,0.009,0.532,0.041,0.896,0.178
							c0.359,0.132,0.783,0.386,1.077,0.827c0.073,0.107,0.127,0.232,0.189,0.353c0.046,0.124,0.081,0.259,0.118,0.391l0.041,0.405
							c0,0.135-0.008,0.267-0.014,0.403c-0.018,0.252-0.084,0.52-0.159,0.761c-0.073,0.247-0.189,0.476-0.313,0.688
							c-0.254,0.426-0.604,0.76-0.949,0.942c-0.167,0.108-0.346,0.153-0.493,0.204c-0.151,0.03-0.28,0.06-0.393,0.066
							c-0.223,0.004-0.34,0-0.34,0s0.114-0.048,0.309-0.126c0.099-0.039,0.203-0.112,0.329-0.171
							c0.115-0.085,0.251-0.161,0.373-0.279c0.125-0.109,0.248-0.245,0.356-0.396c0.117-0.149,0.209-0.325,0.301-0.51
							c0.087-0.188,0.151-0.391,0.214-0.6c0.059-0.214,0.106-0.419,0.113-0.649l0.023-0.32l-0.02-0.309
							c-0.027-0.097-0.043-0.194-0.067-0.291c-0.038-0.089-0.064-0.184-0.112-0.267c-0.176-0.34-0.467-0.602-0.749-0.787
							c-0.288-0.187-0.559-0.307-0.759-0.387C343.205,281.88,343.087,281.847,343.087,281.847z"/>
					</g>
					<path style="fill:#DADADA;" d="M343.74,284.809c0,0.522-0.365,0.949-0.82,0.949c-0.453,0-0.821-0.427-0.821-0.949
						c0-0.523,0.368-0.946,0.821-0.946C343.375,283.862,343.74,284.285,343.74,284.809z"/>
				</g>
				<g>
					<path style="fill:#F8BB94;" d="M293.178,284.567c0,2.704,2.27,4.892,5.064,4.892c2.802,0,5.065-2.188,5.065-4.892
						c0-2.7-2.264-4.892-5.065-4.892C295.448,279.676,293.178,281.867,293.178,284.567z"/>
					<g>
						<path style="fill:#DADADA;" d="M297.59,281.847c0,0-0.121-0.021-0.341-0.013c-0.218,0.009-0.533,0.041-0.896,0.178
							c-0.358,0.132-0.78,0.386-1.077,0.827c-0.075,0.107-0.127,0.232-0.188,0.353c-0.046,0.124-0.084,0.259-0.119,0.391
							l-0.042,0.405c0,0.135,0.013,0.267,0.016,0.403c0.016,0.252,0.084,0.52,0.159,0.761c0.072,0.247,0.188,0.476,0.313,0.688
							c0.252,0.426,0.602,0.76,0.95,0.942c0.164,0.108,0.344,0.153,0.489,0.204c0.153,0.03,0.281,0.06,0.394,0.066
							c0.22,0.004,0.341,0,0.341,0s-0.112-0.048-0.309-0.126c-0.098-0.039-0.205-0.112-0.33-0.171
							c-0.114-0.085-0.253-0.161-0.372-0.279c-0.128-0.109-0.247-0.245-0.358-0.396c-0.112-0.149-0.209-0.325-0.299-0.51
							c-0.089-0.188-0.153-0.391-0.214-0.6c-0.059-0.214-0.106-0.419-0.116-0.649l-0.023-0.32l0.022-0.309
							c0.026-0.097,0.043-0.194,0.063-0.291c0.042-0.089,0.068-0.184,0.114-0.267c0.176-0.34,0.467-0.602,0.752-0.787
							c0.284-0.187,0.561-0.307,0.754-0.387C297.472,281.88,297.59,281.847,297.59,281.847z"/>
					</g>
					<path style="fill:#DADADA;" d="M296.937,284.809c0,0.522,0.368,0.949,0.821,0.949c0.451,0,0.817-0.427,0.817-0.949
						c0-0.523-0.366-0.946-0.817-0.946C297.305,283.862,296.937,284.285,296.937,284.809z"/>
				</g>
				<path style="fill:#F8BB94;" d="M342.433,278.118c0,16.622-7.799,28.294-22.441,28.294c-14.642,0-22.441-11.672-22.441-28.294
					c0-16.623,8.095-30.098,22.74-30.098C334.931,248.02,342.433,261.495,342.433,278.118z"/>
				<path style="fill:#EDEDED;" d="M335.51,270.131c0.996,2.771,1.666,5.684,2.237,8.49c1.347,6.63-0.055,14.123-1.606,20.588
					c4.929-5.981,6.292-14.469,6.292-21.607c0-14.73-5.895-26.981-17.426-29.581c-0.282,0.156-6.473,5.062-6.759,5.225
					c0.074-0.044,6.358,4.164,6.978,4.528c2.4,1.41,4.737,2.996,6.47,5.204C333.375,265.108,334.582,267.56,335.51,270.131z"/>
				<path style="fill:#EDEDED;" d="M304.509,292.242c-2.979-8.198-3.729-17.24,0.671-25.049c4.543-8.062,9.612-11.961,15.752-16.017
					c-15.016,0-23.382,11.372-23.382,26.941c0,15.517,6.798,26.717,19.615,28.137C311.119,303.876,306.853,298.691,304.509,292.242z
					"/>
				<g>
					<g>
						<path style="fill:#DADADA;" d="M322.447,286.289c0,0,0.249,0.082,0.538,0.347c0.128,0.144,0.302,0.311,0.397,0.569
							c0.038,0.13,0.095,0.271,0.078,0.431c0.007,0.158-0.051,0.315-0.107,0.465c-0.164,0.271-0.392,0.48-0.625,0.576
							c-0.225,0.13-0.457,0.144-0.639,0.196c-0.186,0.036-0.352,0.013-0.46,0.02c-0.11-0.002-0.174-0.012-0.174-0.012
							s0.214-0.154,0.521-0.325c0.147-0.094,0.324-0.199,0.474-0.326c0.089-0.052,0.151-0.127,0.215-0.191
							c0.081-0.06,0.104-0.141,0.156-0.207c0.07-0.141,0.083-0.299,0.059-0.479c-0.03-0.177-0.092-0.367-0.165-0.521
							C322.57,286.519,322.447,286.289,322.447,286.289z"/>
					</g>
				</g>
				<g>
					<path style="fill:#FFFFFF;" d="M313.455,293.557h13.073c0,0-1.123,5.229-7.147,5.229
						C319.38,298.785,315.089,298.785,313.455,293.557z"/>
					<g>
						<g>
							<path style="fill:#E1A399;" d="M313.455,293.491c1.089-0.21,2.179-0.325,3.268-0.402c1.09-0.077,2.179-0.118,3.269-0.118
								c1.089-0.007,2.179,0.13,3.269,0.23c1.089,0.127,2.179,0.178,3.268,0.149l0.264-0.007l-0.063,0.256
								c-0.188,0.77-0.456,1.488-0.826,2.187c-0.374,0.689-0.852,1.349-1.456,1.892c-0.297,0.279-0.634,0.508-0.983,0.723
								c-0.35,0.207-0.725,0.378-1.102,0.531c-0.386,0.123-0.77,0.282-1.169,0.343c-0.397,0.087-0.796,0.17-1.198,0.172
								l-0.602,0.034c-0.25-0.005-0.465-0.027-0.671-0.063c-0.416-0.081-0.817-0.194-1.202-0.351
								c-0.389-0.145-0.757-0.34-1.101-0.568c-0.343-0.226-0.679-0.468-0.962-0.762c-0.3-0.276-0.555-0.594-0.795-0.915
								c-0.218-0.338-0.434-0.671-0.594-1.033c-0.365-0.699-0.543-1.467-0.675-2.214l-0.012-0.07L313.455,293.491z M313.573,293.637
								c0.171,0.295,0.314,0.597,0.493,0.877c0.214,0.303,0.385,0.623,0.618,0.9c0.207,0.294,0.459,0.548,0.702,0.8
								c0.262,0.234,0.505,0.482,0.794,0.672c0.55,0.411,1.163,0.711,1.797,0.926c0.316,0.109,0.645,0.182,0.968,0.225
								c0.163,0.03,0.322,0.045,0.446,0.05l0.521-0.027c0.35-0.006,0.691-0.038,1.031-0.094c0.349-0.026,0.669-0.142,1.004-0.22
								c0.323-0.106,0.645-0.227,0.95-0.379c0.307-0.151,0.605-0.32,0.887-0.52c0.288-0.19,0.56-0.411,0.819-0.648
								c0.263-0.236,0.503-0.5,0.725-0.782c0.435-0.564,0.811-1.221,0.998-1.903l0.201,0.249c-1.089-0.029-2.179,0.022-3.268,0.149
								c-1.09,0.101-2.179,0.237-3.269,0.23c-1.09,0-2.179-0.04-3.269-0.118C315.673,293.949,314.623,293.832,313.573,293.637z"/>
						</g>
					</g>
				</g>
				<path style="fill:#F8BB94;" d="M314.716,311.804c0,0-13.938,1.844-18.947,6.179c-5.108,4.421-6.616,8.24-8.456,16.972h32.458
					h0.44h32.458c-1.838-8.731-3.349-12.551-8.452-16.972c-5.013-4.335-18.95-6.179-18.95-6.179H314.716z"/>
				<g>
					<g>
						<path style="fill:#DADADA;" d="M317.004,282.831c0.381,0.701,0.537,1.403,0.622,2.106c0.03,0.175,0.029,0.352,0.04,0.527
							c0.009,0.176,0.021,0.352,0.009,0.528c-0.001,0.352-0.038,0.704-0.085,1.056l-0.02,0.15c-0.006,0.001-0.027,0.068-0.034,0.11
							c-0.012,0.048-0.015,0.097-0.02,0.146c-0.001,0.096,0.003,0.192,0.033,0.279c0.051,0.173,0.167,0.353,0.378,0.488
							c0.201,0.141,0.462,0.256,0.742,0.333c0.28,0.087,0.577,0.142,0.883,0.209c-0.296,0.092-0.602,0.168-0.923,0.196
							c-0.318,0.018-0.659,0.018-1.002-0.103c-0.337-0.107-0.709-0.342-0.915-0.719c-0.109-0.183-0.17-0.385-0.208-0.587
							c-0.014-0.101-0.027-0.203-0.026-0.305c-0.001-0.109,0.001-0.191,0.028-0.337l-0.02,0.149
							c-0.052-0.352-0.095-0.703-0.102-1.055c-0.015-0.176-0.006-0.352,0-0.528c0.008-0.176,0.005-0.352,0.032-0.528
							C316.491,284.243,316.635,283.538,317.004,282.831z"/>
					</g>
				</g>
				<path style="fill:#BC7226;" d="M300.814,315.03l-1.283-29.272c-1.871-17.118,13.807-31.449,13.807-31.449l-6.444-4.545
					c0,0-12.436,0.285-15.395,27.176l-0.98,51.818L300.814,315.03z"/>
				<g>
					<path style="fill:#EDEDED;" d="M309.723,256.231c0,0,9.002,15.845,29.022,15.802l-1.377-4.622
						C337.369,267.411,313.852,260.084,309.723,256.231z"/>
					<path style="fill:#EDEDED;" d="M309.723,256.231c0,0,9.002,15.845,29.022,15.802l-1.377-4.622
						C337.369,267.411,313.852,260.084,309.723,256.231z"/>
					<path style="fill:#C6C6C6;" d="M309.723,256.231c0,0,9.002,15.845,29.022,15.802l-1.377-4.622
						C337.369,267.411,313.852,260.084,309.723,256.231z"/>
				</g>
				<path style="fill:#BC7226;" d="M338.746,304.751c5.891-28.608-1.377-36.358-1.377-36.358
					c-14.501-0.433-30.524-14.479-30.524-14.479c-1.664-10.687,10.16-13.302,10.16-13.302c16.079-3.704,26.083,9.151,26.083,9.151
					s13.605,14.104,8.183,37.863c0,0-6.386,29.992,1.398,47.327h-12.013C340.656,334.954,335.005,322.905,338.746,304.751z"/>
				<g>
					<path style="fill:#9A4D1D;" d="M337.369,268.393c0,0,0.097,0.108,0.279,0.31c0.162,0.216,0.393,0.544,0.68,0.982
						c0.296,0.436,0.523,1.009,0.839,1.66c0.141,0.33,0.343,0.671,0.46,1.054c0.119,0.384,0.244,0.788,0.374,1.208
						c0.13,0.424,0.264,0.866,0.403,1.323c0.067,0.23,0.135,0.464,0.204,0.702c0.042,0.241,0.084,0.486,0.127,0.734
						c0.167,0.994,0.354,2.045,0.507,3.139c0.206,1.093,0.211,2.225,0.257,3.379c0.036,1.153,0.071,2.325,0.107,3.497
						c0.012,1.171-0.146,2.331-0.209,3.478c-0.074,1.146-0.205,2.27-0.301,3.359c-0.055,0.544-0.095,1.08-0.16,1.601
						c-0.071,0.52-0.187,1.023-0.274,1.516c-0.181,0.984-0.375,1.911-0.558,2.765c-0.714,3.419-1.359,5.65-1.359,5.65
						c0.001,0-0.004-2.348,0.243-5.798c0.058-0.863,0.124-1.797,0.219-2.78c0.038-0.492,0.103-0.996,0.122-1.514
						c0.002-0.52,0.032-1.047,0.046-1.585c0.044-1.074,0.058-2.185,0.13-3.31c0.04-1.125,0.171-2.27,0.14-3.409
						c-0.012-1.14-0.025-2.279-0.037-3.401c-0.037-1.12,0.068-2.237-0.082-3.289c-0.103-1.058-0.165-2.087-0.232-3.066
						c-0.018-0.245-0.035-0.486-0.052-0.724c-0.04-0.232-0.081-0.461-0.12-0.685c-0.073-0.453-0.143-0.891-0.211-1.311
						c-0.133-0.845-0.236-1.628-0.449-2.284c-0.198-0.658-0.295-1.283-0.483-1.736c-0.18-0.471-0.321-0.841-0.417-1.093
						C337.436,268.522,337.369,268.393,337.369,268.393z"/>
				</g>
				<g>
					<g>
						<path style="fill:#9A4D1D;" d="M306.844,253.914c-0.128-0.988-0.329-1.957-0.245-2.977c0.012-0.252,0.004-0.509,0.034-0.76
							l0.142-0.746l0.144-0.749c0.074-0.243,0.169-0.48,0.253-0.72l0.262-0.722c0.107-0.232,0.239-0.452,0.358-0.679l0.37-0.677
							l0.456-0.621c0.289-0.43,0.637-0.808,0.997-1.177c0.338-0.393,0.745-0.708,1.136-1.043c0.799-0.648,1.667-1.204,2.573-1.686
							c0.904-0.488,1.851-0.886,2.832-1.215c0.261-0.083,0.462-0.152,0.795-0.225l0.731-0.142l1.461-0.284
							c0.245-0.044,0.483-0.1,0.733-0.136l0.774-0.064l1.554-0.122c1.038-0.086,2.053,0.037,3.082,0.056
							c1.016,0.123,2.039,0.26,3.045,0.461c0.989,0.27,2.011,0.45,2.966,0.833c0.483,0.174,0.973,0.335,1.451,0.522l1.399,0.644
							c0.473,0.202,0.92,0.453,1.366,0.705c0.443,0.257,0.908,0.481,1.332,0.767l1.289,0.837l1.238,0.908
							c0.81,0.624,1.6,1.279,2.342,1.987c0.747,0.719,1.446,1.422,2.133,2.279l-0.067-0.077c0.62,0.69,1.148,1.343,1.653,2.051
							c0.522,0.688,0.976,1.417,1.452,2.131c0.428,0.743,0.9,1.461,1.278,2.23c0.382,0.766,0.804,1.512,1.128,2.304
							c0.335,0.786,0.716,1.553,0.988,2.364c0.28,0.807,0.621,1.592,0.849,2.415l0.696,2.461l0.519,2.502
							c0.203,0.828,0.245,1.684,0.374,2.523c0.106,0.843,0.219,1.685,0.227,2.536l0.102,2.541c-0.009,0.847-0.065,1.693-0.108,2.537
							c-0.04,0.844-0.077,1.686-0.221,2.521l-0.348,2.503c-0.086,0.837-0.339,1.648-0.511,2.469l-0.589,2.445l0.323-2.493
							c0.087-0.831,0.285-1.645,0.299-2.483l0.144-2.494c0.076-0.828,0.045-1.66,0.018-2.49l-0.064-2.483l-0.243-2.469
							c-0.053-0.825-0.214-1.635-0.36-2.447c-0.16-0.809-0.232-1.633-0.464-2.425l-0.601-2.393l-0.766-2.341
							c-0.238-0.786-0.588-1.532-0.875-2.299c-0.279-0.771-0.665-1.497-1.004-2.242c-0.329-0.751-0.752-1.454-1.135-2.176
							c-0.382-0.723-0.841-1.4-1.25-2.107c-0.459-0.673-0.895-1.364-1.392-2.005c-0.47-0.653-1.007-1.295-1.508-1.847l-0.04-0.045
							l-0.026-0.033c-0.56-0.688-1.264-1.395-1.953-2.043c-0.702-0.653-1.427-1.284-2.186-1.873l-1.154-0.862l-1.201-0.794
							c-0.396-0.273-0.829-0.482-1.241-0.728c-0.415-0.24-0.831-0.479-1.271-0.669l-1.299-0.612l-1.339-0.514
							c-0.881-0.383-1.824-0.566-2.74-0.845c-0.931-0.209-1.879-0.359-2.824-0.5l-1.434-0.094c-0.478-0.027-0.96-0.093-1.428-0.05
							l-1.418,0.05l-0.711,0.023c-0.242,0.023-0.49,0.07-0.734,0.104l-1.472,0.223l-0.736,0.111
							c-0.153,0.025-0.429,0.096-0.642,0.157c-0.912,0.26-1.825,0.573-2.692,0.982c-0.871,0.4-1.71,0.872-2.485,1.431
							c-0.377,0.292-0.783,0.555-1.121,0.892c-0.36,0.314-0.713,0.639-1.009,1.015l-0.472,0.543l-0.391,0.602
							c-0.128,0.203-0.27,0.399-0.388,0.608l-0.298,0.656c-0.098,0.221-0.206,0.438-0.296,0.663l-0.192,0.7l-0.194,0.704
							c-0.048,0.237-0.058,0.48-0.09,0.721C306.732,251.917,306.821,252.924,306.844,253.914z"/>
					</g>
				</g>
				<g>
					<path style="fill:#9A4D1D;" d="M291.5,276.94c0,0-0.004-0.516,0.019-1.415c0.018-0.448,0.04-0.993,0.065-1.617
						c0.04-0.624,0.04-1.326,0.177-2.093c0.107-0.768,0.223-1.603,0.375-2.484c0.117-0.891,0.377-1.792,0.618-2.736
						c0.124-0.471,0.249-0.95,0.376-1.436c0.148-0.479,0.326-0.958,0.505-1.439c0.179-0.481,0.359-0.967,0.54-1.455
						c0.182-0.487,0.431-0.952,0.645-1.431l0.695-1.408c0.271-0.449,0.541-0.897,0.808-1.341c0.495-0.911,1.174-1.692,1.766-2.481
						c0.625-0.767,1.298-1.458,1.966-2.07c0.345-0.295,0.68-0.583,1.004-0.861c0.338-0.261,0.69-0.483,1.013-0.71
						c0.642-0.459,1.304-0.778,1.875-1.056c0.294-0.126,0.568-0.243,0.823-0.352c0.263-0.084,0.504-0.162,0.723-0.232
						c0.881-0.251,1.4-0.274,1.4-0.274s-0.122,0.043-0.338,0.147c-0.219,0.093-0.525,0.272-0.909,0.486
						c-0.384,0.219-0.826,0.519-1.32,0.873c-0.255,0.162-0.492,0.392-0.757,0.601c-0.265,0.212-0.544,0.43-0.806,0.697
						c-0.267,0.259-0.557,0.511-0.831,0.801c-0.27,0.294-0.548,0.597-0.835,0.909c-0.3,0.296-0.541,0.667-0.818,1.012
						c-0.257,0.364-0.582,0.679-0.819,1.08c-0.514,0.77-1.053,1.55-1.515,2.408c-0.241,0.42-0.484,0.845-0.729,1.271l-0.627,1.344
						c-0.211,0.448-0.458,0.878-0.64,1.338c-0.183,0.461-0.365,0.919-0.545,1.375c-0.185,0.455-0.368,0.905-0.549,1.351
						c-0.153,0.458-0.305,0.909-0.454,1.354c-0.275,0.895-0.646,1.738-0.847,2.573c-0.226,0.83-0.467,1.611-0.689,2.337
						c-0.236,0.719-0.381,1.415-0.544,2.016c-0.162,0.604-0.303,1.13-0.419,1.563C291.657,276.448,291.5,276.94,291.5,276.94z"/>
				</g>
				<path style="opacity:0.3;fill:#FFFFFF;" d="M299.967,262.8c1.167-1.161,3.061-1.783,4.634-2.015
					c-1.997,1.813-3.595,3.001-5.356,6.261c-0.775,1.435-4.083,7.575-4.787,9.027l3.221-10.139c0,0-1.152,0.563-1.48,1.595
					c0,0,2.135-11.93,7.712-13.878C303.911,253.651,300.219,259.378,299.967,262.8z"/>
				<path style="opacity:0.3;fill:#FFFFFF;" d="M341.845,270.52c0,0,5.503,8.504,2.326,17.766c0,0,2.623-5.249,2.975-11.594
					c0,0,1.161-2.771,1.835-0.579c0,0,1.673-2.828-0.241-8.377c0,0,1.305,1.034-1.796,4.063
					C346.942,271.799,344.199,269.629,341.845,270.52z"/>
				<path style="opacity:0.3;fill:#FFFFFF;" d="M339.156,250.711c0.392,0.383-0.779-1.202-1.166-1.602
					c-0.807-0.847-1.661-1.654-2.696-2.2c-2.186-1.146-4.33-2.125-6.669-2.939c-1.19-0.415-2.37-0.908-3.634-0.905
					c-1.156,0.003-2.807-0.148-3.841,0.441c0.338,0.591,1.933,0.53,2.575,0.72c1.548,0.458,3.368,1.026,4.666,1.99
					c-1.947,0.221-3.983-0.159-5.883,0.307c0.763,0.355,1.702,0.392,2.512,0.632c0.95,0.28,1.897,0.643,2.835,0.924
					c1.712,0.51,3.376,1.196,4.957,1.956c0,0,1.785,0.499,3.432,0.559c0,0-1.172-0.792-3.485-2.366
					C332.758,248.227,335.717,247.336,339.156,250.711z"/>
				<path style="opacity:0.3;fill:#FFFFFF;" d="M326.275,250.433c2.223-0.544,4.447,1.307,6.652,1.84
					c2.307,0.56,4.114,0.684,6.363,0.584c-0.576,1.338-2.011,1.727-2.946,2.581c2.862,0.884,5.518,1.535,8.14-0.263
					c-1.149,1.536-2.398,3.679-4.621,3.853c2.421,0.559,5.536,0.542,6.261-2.444c0.378,2.395-1.674,4.831-3.76,5.711
					c0,0-6.794,3.728-20.379-2.303c0,0-7.815-3.827-11.478-11.346c0,0,2.123,2.088,6.214,2.646c0,0-2.468-3.801-0.672-7.455
					C316.049,243.837,319.069,252.194,326.275,250.433z"/>
				<path style="opacity:0.3;fill:#FFFFFF;" d="M343.74,290.489c0,0-7.832,22.24,0,26.162c0,0-4.22-7.409,0.677-11.112
					c0,0,0.619,5.122,4.324,6.265c0,0-3.27-19.037,2.396-29.972c0,0-7.809,7.277-5.439,19.187
					C345.697,301.019,341.731,296.99,343.74,290.489z"/>
				<path style="opacity:0.3;fill:#FFFFFF;" d="M299.665,282.622c0,0-5.064,7.057-2.718,15.112c0,0-2.03-4.598-2.074-10.044
					c0,0-0.883-2.42-1.55-0.571c0,0-1.315-2.49,0.553-7.162c0,0-1.159,0.832,1.371,3.554
					C295.246,283.511,297.682,281.763,299.665,282.622z"/>
				<path style="opacity:0.3;fill:#FFFFFF;" d="M297.224,299.64c0,0,5.804,19.359-1.064,22.398c0,0,3.913-6.173-0.125-9.539
					c0,0-0.74,4.357-3.957,5.186c0,0,3.572-16.165-0.833-25.756c0,0,6.39,6.547,3.877,16.646
					C295.122,308.575,298.683,305.288,297.224,299.64z"/>
				<path style="fill:#7D113C;" d="M331.332,312.914c4.406,0.975,10.06,2.626,12.884,5.068c5.103,4.421,6.614,8.24,8.452,16.972
					h-32.458h-0.44h-32.458c1.84-8.731,3.349-12.551,8.456-16.972c2.781-2.403,8.306-4.042,12.676-5.024
					C308.445,312.958,319.554,326.96,331.332,312.914z"/>
				<path style="fill:#C6C6C6;" d="M332.857,317.747c1.646,2.194,3.999,3.076,6.39,4.194c3.713,1.738,6.457,3.908,7.359,8.083
					c0.382,1.782,0.222,3.424-0.323,4.93h6.386c-1.838-8.731-3.349-12.551-8.452-16.972c-2.592-2.241-7.564-3.813-11.768-4.813
					C331.775,314.609,331.69,316.194,332.857,317.747z"/>
				<path style="fill:#C6C6C6;" d="M323.131,332.448c-4.896-1.15-10.01-0.296-14.811-2.061c-8.161-2.998-6.193-11.711-1.582-17.023
					c-4.021,1.003-8.542,2.519-10.97,4.618c-5.108,4.421-6.616,8.24-8.456,16.972h40.715
					C326.673,333.699,324.902,332.865,323.131,332.448z"/>
				<g>
					<path style="fill:#09485B;" d="M312.312,276.473c0,1.238-1.005,2.242-2.243,2.242c-1.24,0-2.246-1.004-2.246-2.242
						c0-1.238,1.006-2.242,2.246-2.242C311.307,274.23,312.312,275.234,312.312,276.473z"/>
					<path style="fill:#FFFFFF;" d="M310.198,275.038c0.18,0.252-0.078,0.748-0.583,1.11c-0.503,0.36-1.058,0.451-1.236,0.2
						c-0.182-0.252,0.08-0.749,0.58-1.11C309.464,274.877,310.017,274.787,310.198,275.038z"/>
				</g>
				<g>
					<path style="fill:#09485B;" d="M326.799,276.473c0,1.238,1,2.242,2.242,2.242c1.237,0,2.243-1.004,2.243-2.242
						c0-1.238-1.006-2.242-2.243-2.242C327.799,274.23,326.799,275.234,326.799,276.473z"/>
					<path style="fill:#FFFFFF;" d="M328.911,275.038c-0.184,0.252,0.079,0.748,0.583,1.11c0.501,0.36,1.057,0.451,1.236,0.2
						c0.183-0.252-0.082-0.749-0.583-1.11C329.644,274.877,329.089,274.787,328.911,275.038z"/>
				</g>
				
					<path style="fill:none;stroke:#2A1807;stroke-width:1.2227;stroke-linecap:round;stroke-linejoin:round;stroke-miterlimit:10;" d="
					M325.843,271.737c0,0,4.465-3.949,7.952,0.814"/>
				
					<path style="fill:none;stroke:#2A1807;stroke-width:1.2227;stroke-linecap:round;stroke-linejoin:round;stroke-miterlimit:10;" d="
					M313.262,271.737c0,0-4.461-3.949-7.947,0.814"/>
			</g>
			<g>
				<path d="M342.368,270.572c-3.702-0.814-13.856,2.171-15.857,2.773c-0.707,0.213-1.417,0.458-2.112,0.738
					c0,0-3.414,1.306-1.604,5.522c0,0,1.404,3.613,4.932,4.785c0,0,4.503,1.739,7.815-1.371c0,0,0.159-0.121,0.423-0.341
					c6.649-5.455,7.691-8.867,7.691-8.867C344.879,270.772,342.368,270.572,342.368,270.572z M339.754,275.901
					c-0.538,3.486-4.65,6.615-4.65,6.615c-2.948,2.771-6.961,1.222-6.961,1.222c-3.141-1.043-4.391-4.261-4.391-4.261
					c-1.607-3.756,1.432-4.916,1.432-4.916c4.826-1.955,10.368-1.878,10.368-1.878C340.646,272.606,339.754,275.901,339.754,275.901
					z"/>
				<path d="M296.33,273.813c0,0,1.04,3.412,7.694,8.867c0.26,0.22,0.415,0.341,0.415,0.341c3.314,3.11,7.821,1.371,7.821,1.371
					c3.525-1.172,4.927-4.785,4.927-4.785c1.81-4.217-1.604-5.522-1.604-5.522c-0.696-0.28-1.403-0.525-2.111-0.738
					c-2-0.603-12.155-3.587-15.856-2.773C297.616,270.572,295.103,270.772,296.33,273.813z M304.431,272.684
					c0,0,5.543-0.077,10.372,1.878c0,0,3.036,1.16,1.43,4.916c0,0-1.254,3.218-4.393,4.261c0,0-4.013,1.549-6.962-1.222
					c0,0-4.111-3.129-4.649-6.615C300.228,275.901,299.338,272.606,304.431,272.684z"/>
				<path d="M324.398,274.084c0,0-4.932,2.182-8.815,0l1.338,2.611l0.153,2.009c0,0,2.105-2.109,5.786-0.302l-0.015-2.008
					L324.398,274.084z"/>
				<path style="opacity:0.3;fill:#FFFFFF;" d="M304.443,272.667c0,0,5.544-0.08,10.368,1.877c0,0,3.04,1.162,1.432,4.916
					c0,0-1.25,3.218-4.389,4.264c0,0-4.015,1.548-6.964-1.225c0,0-4.109-3.128-4.65-6.612
					C300.24,275.887,299.348,272.587,304.443,272.667z"/>
				<path style="opacity:0.3;fill:#FFFFFF;" d="M339.754,275.901c-0.538,3.486-4.65,6.615-4.65,6.615
					c-2.948,2.771-6.961,1.222-6.961,1.222c-3.141-1.043-4.391-4.261-4.391-4.261c-1.607-3.756,1.432-4.916,1.432-4.916
					c4.826-1.955,10.368-1.878,10.368-1.878C340.646,272.606,339.754,275.901,339.754,275.901z"/>
			</g>
		</g>
		<path style="opacity:0.3;fill:#FFFFFF;" d="M368.362,380.533c0,1.624-1.315,2.939-2.936,2.939h-90.867
			c-1.625,0-2.941-1.315-2.941-2.939V217.777c0-1.623,1.317-2.938,2.941-2.938h36.479
			C311.038,214.839,277.767,319.868,368.362,380.533z"/>
	</g>
	<g>
		<path style="fill:#FFFFFF;stroke:#174365;stroke-width:5.1667;stroke-linejoin:round;stroke-miterlimit:10;" d="M377.015,144.899
			c-1.348-3.152-5.005-8.221-8.511-6.266c10.644-5.941,17.475-11.988,19.11-25.005c1.6-12.698-6.883-24.355-18.547-29.014
			c-5.018-2.003-15.102-2.958-19.602,1.143c11.753-36.492-47.781-49.006-57.938-14.942c-0.742,2.483-1.526,5.298-1.501,7.919
			c-7.753-21.426-48.405,0.066-35.782,22.864c-3.306-5.97-16.736-5.234-21.936-3.722c-11.622,3.385-18.169,14.28-15.823,26.056
			c2.21,11.094,10.136,15.345,20.424,17.159c-4.621-0.811-4.958,10.228-4.977,12.762c-0.097,11.533,7.77,20.331,18.942,22.786
			c5.222,1.146,22.195-1.404,22.535-9.275c-1.105,25.514,37.948,32.284,50.3,12.669c2.073-3.292,3.479-10.189-0.1-13.28
			c5.225,4.518,8.774,9.559,15.391,12.58C361.165,189.458,387.364,169.093,377.015,144.899z"/>
		<g>
			<g>
				<path style="fill:#174365;" d="M332.726,44.677c0-5.167,0-10.333,0-15.5c0-1.666-2.583-1.666-2.583,0c0,5.167,0,10.333,0,15.5
					C330.143,46.343,332.726,46.343,332.726,44.677L332.726,44.677z"/>
			</g>
		</g>
		<g>
			<g>
				<path style="fill:#174365;" d="M339.926,47.657c2.395-2.829,4.035-6.129,6.054-9.215c0.915-1.398-1.323-2.691-2.23-1.304
					c-1.893,2.893-3.406,6.041-5.651,8.691C337.029,47.093,338.848,48.93,339.926,47.657L339.926,47.657z"/>
			</g>
		</g>
		<g>
			<g>
				<path style="fill:#174365;" d="M348.618,55.093c3.934-2.808,8.191-5.103,11.974-8.127c1.301-1.041-0.54-2.856-1.827-1.827
					c-3.605,2.883-7.7,5.047-11.45,7.724C345.971,53.821,347.259,56.063,348.618,55.093L348.618,55.093z"/>
			</g>
		</g>
		<g>
			<g>
				<path style="fill:#174365;" d="M238.434,72.443c3.596,0.804,6.83,2.578,10.026,4.35c1.458,0.809,2.761-1.423,1.304-2.23
					c-3.381-1.875-6.84-3.761-10.644-4.611C237.498,69.589,236.809,72.08,238.434,72.443L238.434,72.443z"/>
			</g>
		</g>
		<g>
			<g>
				<path style="fill:#174365;" d="M244.064,59.712c3.495,3.163,6.826,6.493,9.989,9.988c1.12,1.237,2.941-0.595,1.827-1.827
					c-3.163-3.495-6.494-6.825-9.99-9.988C244.658,56.771,242.825,58.592,244.064,59.712L244.064,59.712z"/>
			</g>
		</g>
		<g>
			<g>
				<path style="fill:#174365;" d="M254.754,57.763c1.088,3.451,2.77,6.651,4.133,9.992c0.621,1.521,3.121,0.856,2.491-0.687
					c-1.362-3.339-3.046-6.546-4.133-9.992C256.746,55.494,254.251,56.17,254.754,57.763L254.754,57.763z"/>
			</g>
		</g>
		<g>
			<g>
				<path style="fill:#174365;" d="M387.661,87.693c1.342-2.659,2.792-5.262,4.133-7.922c0.748-1.483-1.48-2.792-2.23-1.304
					c-1.341,2.66-2.79,5.263-4.133,7.922C384.682,87.872,386.91,89.181,387.661,87.693L387.661,87.693z"/>
			</g>
		</g>
		<g>
			<g>
				<path style="fill:#174365;" d="M390.334,93.457c2.11-0.706,4.23-1.422,6.163-2.542c1.44-0.835,0.14-3.068-1.304-2.23
					c-1.744,1.012-3.642,1.645-5.546,2.282C388.076,91.492,388.75,93.987,390.334,93.457L390.334,93.457z"/>
			</g>
		</g>
		<g>
			<g>
				<path style="fill:#174365;" d="M392.058,100.002c2.477,0.354,4.905,0.77,7.233,1.723c1.542,0.631,2.207-1.869,0.687-2.491
					c-2.328-0.953-4.756-1.368-7.233-1.723C391.115,97.277,390.414,99.766,392.058,100.002L392.058,100.002z"/>
			</g>
		</g>
		<g>
			<g>
				<path style="fill:#373C47;" d="M263.432,129.399c-0.045,0.342-0.154,0.622-0.325,0.838c-0.171,0.217-0.376,0.388-0.616,0.514
					c-0.239,0.126-0.496,0.214-0.77,0.265c-0.274,0.051-0.537,0.077-0.787,0.077c-0.297,0-0.585-0.031-0.865-0.094
					c-0.28-0.063-0.528-0.16-0.744-0.291c-0.217-0.131-0.388-0.291-0.514-0.479c-0.126-0.189-0.189-0.402-0.189-0.642
					c0-0.468,0.023-0.898,0.069-1.292c0.046-0.393,0.114-0.79,0.205-1.189c0.319-1.335,0.599-2.576,0.839-3.723
					c0.24-1.147,0.445-2.234,0.616-3.261c0.171-1.027,0.319-2.022,0.445-2.986c0.125-0.964,0.237-1.934,0.334-2.91
					c0.097-0.976,0.185-1.982,0.265-3.021c0.08-1.038,0.165-2.151,0.257-3.337c0-0.103,0-0.234,0-0.394
					c0-0.16-0.017-0.311-0.051-0.454c-0.035-0.143-0.094-0.265-0.18-0.368c-0.086-0.103-0.214-0.154-0.385-0.154
					c-0.274,0-0.608,0.094-1.001,0.283c-0.394,0.188-0.807,0.442-1.241,0.762c-0.434,0.319-0.867,0.693-1.301,1.121
					c-0.434,0.428-0.833,0.888-1.198,1.378c-0.068,0.171-0.177,0.294-0.325,0.368c-0.148,0.074-0.313,0.111-0.496,0.111
					c-0.057,0-0.117-0.048-0.18-0.146c-0.063-0.097-0.12-0.214-0.171-0.351c-0.051-0.137-0.094-0.282-0.128-0.437
					c-0.034-0.154-0.051-0.293-0.051-0.419c0-0.069,0.023-0.125,0.068-0.171c0.411-1.346,0.876-2.473,1.395-3.38
					c0.519-0.907,1.067-1.631,1.643-2.174c0.576-0.541,1.164-0.927,1.763-1.155c0.599-0.228,1.172-0.342,1.72-0.342
					c0.707,0,1.295,0.134,1.763,0.402c0.468,0.268,0.838,0.645,1.112,1.129c0.274,0.485,0.465,1.07,0.573,1.754
					c0.108,0.685,0.163,1.444,0.163,2.276c0,0.639-0.051,1.387-0.154,2.242c-0.103,0.856-0.231,1.754-0.385,2.696
					c-0.154,0.941-0.322,1.886-0.505,2.833c-0.183,0.947-0.359,1.832-0.53,2.653c0.365-1.518,0.796-2.976,1.292-4.373
					c0.496-1.398,1.038-2.705,1.626-3.92c0.587-1.215,1.212-2.316,1.874-3.303c0.662-0.987,1.344-1.834,2.045-2.541
					c0.702-0.708,1.412-1.255,2.131-1.643c0.719-0.388,1.432-0.582,2.14-0.582c0.524,0,1.01,0.114,1.455,0.342
					c0.445,0.229,0.827,0.582,1.147,1.061c0.319,0.479,0.567,1.084,0.745,1.814c0.177,0.73,0.265,1.598,0.265,2.602
					c0,0.091-0.009,0.234-0.026,0.428c-0.017,0.194-0.04,0.417-0.068,0.668c-0.028,0.251-0.063,0.522-0.103,0.813
					c-0.04,0.291-0.077,0.58-0.111,0.865c-0.091,0.685-0.189,1.426-0.291,2.225l0.359-0.017c0.445-1.688,0.993-3.206,1.643-4.553
					c0.65-1.346,1.381-2.49,2.191-3.432c0.81-0.941,1.683-1.663,2.619-2.165c0.935-0.502,1.905-0.753,2.91-0.753
					c0.696,0,1.315,0.205,1.857,0.616c0.542,0.411,0.996,0.967,1.361,1.669c0.365,0.702,0.645,1.523,0.839,2.465
					c0.194,0.941,0.291,1.937,0.291,2.987c0,0.981-0.065,1.988-0.197,3.021c-0.131,1.033-0.294,2.054-0.488,3.064
					c-0.194,1.01-0.402,2-0.625,2.97c-0.223,0.97-0.431,1.888-0.625,2.755c-0.194,0.867-0.357,1.669-0.488,2.405
					c-0.131,0.736-0.197,1.372-0.197,1.908c0,0.673,0.122,1.161,0.368,1.463c0.245,0.303,0.602,0.454,1.07,0.454
					c0.262,0,0.539-0.071,0.83-0.214c0.291-0.143,0.582-0.331,0.873-0.565c0.29-0.233,0.579-0.502,0.864-0.804
					c0.285-0.302,0.559-0.613,0.821-0.933c0.605-0.73,1.204-1.568,1.797-2.516c0,0.011,0.051,0.131,0.154,0.359
					c0.08,0.194,0.211,0.525,0.394,0.993c0.183,0.468,0.439,1.141,0.77,2.019c-0.571,1.004-1.158,1.854-1.763,2.55
					c-0.604,0.696-1.221,1.264-1.848,1.703c-0.628,0.439-1.264,0.756-1.909,0.95c-0.645,0.194-1.287,0.291-1.925,0.291
					c-0.616,0-1.218-0.108-1.806-0.325c-0.588-0.217-1.11-0.539-1.566-0.967c-0.457-0.428-0.822-0.958-1.096-1.592
					c-0.274-0.633-0.411-1.361-0.411-2.183c0-0.091,0.003-0.188,0.008-0.291c0.006-0.103,0.014-0.205,0.026-0.308
					c0.045-0.765,0.143-1.578,0.291-2.439c0.148-0.862,0.316-1.749,0.505-2.662c0.189-0.913,0.385-1.843,0.59-2.79
					c0.206-0.947,0.394-1.891,0.565-2.833c0.171-0.941,0.314-1.871,0.428-2.79c0.114-0.918,0.171-1.8,0.171-2.644
					c0-0.514-0.017-0.979-0.051-1.395c-0.034-0.416-0.103-0.77-0.205-1.061c-0.103-0.291-0.251-0.516-0.445-0.676
					c-0.194-0.16-0.451-0.24-0.771-0.24c-0.605,0-1.175,0.212-1.711,0.633c-0.537,0.422-1.044,1.004-1.523,1.746
					c-0.479,0.742-0.927,1.62-1.343,2.636c-0.417,1.016-0.81,2.114-1.181,3.294c-0.371,1.181-0.716,2.419-1.036,3.714
					c-0.319,1.295-0.616,2.599-0.89,3.911c-0.274,1.313-0.531,2.608-0.771,3.885c-0.239,1.278-0.462,2.488-0.668,3.629
					c-0.091,0.319-0.231,0.59-0.419,0.813c-0.188,0.222-0.405,0.402-0.65,0.539c-0.245,0.137-0.505,0.237-0.778,0.299
					c-0.274,0.063-0.548,0.094-0.822,0.094c-0.24,0-0.477-0.045-0.711-0.137c-0.234-0.091-0.439-0.237-0.616-0.436
					c-0.177-0.2-0.319-0.454-0.428-0.762s-0.163-0.685-0.163-1.13c0-0.296,0.068-0.807,0.206-1.532
					c0.137-0.725,0.311-1.592,0.522-2.602c0.211-1.01,0.439-2.116,0.685-3.32c0.245-1.204,0.473-2.431,0.684-3.68
					c0.211-1.25,0.385-2.485,0.522-3.706c0.137-1.221,0.206-2.345,0.206-3.372c0-0.707-0.017-1.34-0.051-1.9
					c-0.034-0.559-0.114-1.032-0.24-1.42c-0.126-0.388-0.306-0.685-0.539-0.89c-0.234-0.205-0.545-0.308-0.933-0.308
					c-0.319,0-0.685,0.217-1.095,0.65c-0.411,0.434-0.853,1.033-1.327,1.797c-0.474,0.765-0.961,1.663-1.463,2.696
					c-0.502,1.033-1.001,2.148-1.498,3.346c-0.496,1.198-0.976,2.45-1.438,3.757c-0.462,1.307-0.887,2.613-1.275,3.919
					c-0.388,1.307-0.73,2.584-1.027,3.833C263.802,127.131,263.58,128.304,263.432,129.399z"/>
				<path style="fill:#373C47;" d="M305.827,118.257c0.331,0.662,0.579,1.36,0.745,2.096c0.165,0.736,0.248,1.441,0.248,2.114
					c0,0.674-0.074,1.353-0.223,2.037c-0.148,0.685-0.362,1.346-0.642,1.985c-0.28,0.639-0.622,1.238-1.027,1.797
					c-0.405,0.56-0.867,1.044-1.386,1.455c-0.52,0.411-1.087,0.736-1.703,0.976c-0.616,0.24-1.272,0.359-1.968,0.359
					c-1.004,0-1.863-0.22-2.576-0.659c-0.713-0.439-1.298-1.012-1.754-1.72c-0.456-0.708-0.79-1.506-1.001-2.396
					c-0.211-0.89-0.317-1.791-0.317-2.704c0-1.255,0.189-2.428,0.565-3.517c0.376-1.09,0.916-2.037,1.618-2.841
					c0.702-0.805,1.56-1.438,2.576-1.9c1.016-0.462,2.157-0.693,3.423-0.693c1.083,0,2.099,0.169,3.046,0.505
					c0.947,0.337,1.834,0.788,2.662,1.353c0.827,0.564,1.597,1.212,2.311,1.942c0.713,0.73,1.378,1.483,1.994,2.259l-0.325,2.413
					c-0.308-0.411-0.725-0.855-1.249-1.335c-0.525-0.479-1.081-0.947-1.669-1.403c-0.588-0.456-1.167-0.887-1.737-1.292
					c-0.571-0.405-1.061-0.745-1.472-1.019L305.827,118.257z M300.539,127.79c0.388,0,0.764-0.197,1.129-0.59
					c0.365-0.394,0.685-0.89,0.958-1.489c0.274-0.599,0.494-1.261,0.659-1.985c0.165-0.725,0.248-1.418,0.248-2.08
					c0-0.525-0.04-1.013-0.12-1.463c-0.08-0.451-0.2-0.841-0.359-1.172c-0.16-0.331-0.366-0.593-0.616-0.788
					c-0.251-0.194-0.554-0.291-0.907-0.291c-0.468,0-0.913,0.2-1.335,0.599c-0.422,0.4-0.793,0.91-1.113,1.532
					c-0.319,0.622-0.57,1.309-0.753,2.062c-0.183,0.753-0.274,1.478-0.274,2.174c0,0.479,0.045,0.93,0.137,1.352
					c0.091,0.422,0.233,0.79,0.428,1.104c0.194,0.314,0.451,0.565,0.77,0.753C299.711,127.696,300.093,127.79,300.539,127.79z"/>
				<path style="fill:#373C47;" d="M315.806,117.299c0.639-0.799,1.224-1.44,1.754-1.926c0.53-0.485,1.058-0.728,1.583-0.728
					c0.673,0,1.272,0.148,1.797,0.445c0.524,0.297,0.97,0.691,1.335,1.181c0.365,0.491,0.645,1.056,0.838,1.695
					c0.194,0.639,0.291,1.307,0.291,2.003c0,0.582-0.023,1.132-0.068,1.651c-0.046,0.52-0.128,1.027-0.248,1.523
					c-0.12,0.496-0.286,0.99-0.497,1.48c-0.211,0.491-0.488,0.999-0.83,1.523c0.411-0.24,0.827-0.474,1.25-0.702
					c0.422-0.229,0.847-0.479,1.275-0.753c0.428-0.274,0.859-0.579,1.292-0.915c0.434-0.337,0.878-0.733,1.335-1.189l1.318,2.824
					c-0.628,0.57-1.253,1.067-1.874,1.489c-0.622,0.422-1.261,0.791-1.917,1.104c-0.656,0.314-1.341,0.585-2.054,0.813
					c-0.713,0.229-1.469,0.434-2.268,0.616c-0.194,0.194-0.46,0.388-0.796,0.582c-0.336,0.194-0.67,0.371-1.001,0.53
					c-0.377,0.183-0.782,0.359-1.215,0.531h-0.428c-0.97,0-1.932-0.134-2.884-0.402c-0.953-0.268-1.817-0.567-2.593-0.898
					c-0.902-0.376-1.763-0.81-2.585-1.301c0.034-0.924,0.103-1.968,0.205-3.132c0.091-1.004,0.217-2.188,0.376-3.551
					c0.16-1.363,0.377-2.884,0.65-4.561c0.183-1.118,0.411-2.364,0.685-3.74c0.273-1.374,0.596-2.767,0.967-4.176
					c0.371-1.409,0.787-2.778,1.249-4.108c0.462-1.329,0.976-2.513,1.54-3.552c0.565-1.038,1.181-1.871,1.848-2.498
					c0.668-0.628,1.389-0.942,2.165-0.942c0.867,0,1.563,0.148,2.088,0.445c0.525,0.297,0.93,0.699,1.215,1.207
					c0.285,0.508,0.473,1.104,0.564,1.789s0.137,1.415,0.137,2.191c0,1.084-0.203,2.202-0.608,3.354
					c-0.405,1.153-0.933,2.302-1.583,3.449c-0.65,1.146-1.378,2.268-2.182,3.363c-0.805,1.096-1.606,2.128-2.405,3.098
					L315.806,117.299z M317.346,118.548c-0.4,0-0.799,0.083-1.198,0.249c-0.399,0.165-0.77,0.422-1.113,0.77
					c-0.342,0.348-0.645,0.794-0.907,1.335c-0.263,0.542-0.456,1.195-0.582,1.96c-0.102,0.616-0.188,1.184-0.257,1.703
					c-0.068,0.52-0.126,0.979-0.171,1.378c-0.046,0.456-0.086,0.884-0.12,1.284c0.376,0.114,0.753,0.211,1.13,0.291
					c0.331,0.068,0.679,0.131,1.044,0.188c0.365,0.057,0.713,0.085,1.044,0.085c0.388,0,0.742-0.114,1.061-0.342
					c0.319-0.228,0.605-0.533,0.856-0.915s0.468-0.819,0.65-1.31c0.183-0.491,0.331-1.001,0.445-1.532
					c0.114-0.531,0.2-1.055,0.257-1.575c0.057-0.519,0.085-0.996,0.085-1.429c0-0.285-0.031-0.556-0.094-0.813
					c-0.063-0.257-0.177-0.482-0.342-0.676c-0.165-0.194-0.394-0.35-0.685-0.471C318.159,118.608,317.791,118.548,317.346,118.548z
					 M319.023,102.87c0-0.045-0.009-0.143-0.026-0.291c-0.017-0.148-0.057-0.302-0.12-0.462c-0.063-0.16-0.151-0.302-0.266-0.428
					c-0.114-0.125-0.268-0.188-0.462-0.188c-0.228,0-0.465,0.163-0.71,0.488c-0.245,0.325-0.488,0.765-0.727,1.318
					c-0.24,0.554-0.474,1.192-0.702,1.917c-0.228,0.725-0.451,1.483-0.668,2.276s-0.419,1.6-0.607,2.422
					c-0.189,0.821-0.359,1.6-0.514,2.336c-0.154,0.736-0.288,1.409-0.402,2.02c-0.114,0.61-0.206,1.104-0.274,1.48
					c0.308-0.593,0.653-1.21,1.036-1.849c0.382-0.639,0.767-1.303,1.155-1.994c0.388-0.69,0.767-1.397,1.138-2.122
					c0.371-0.725,0.707-1.466,1.01-2.225c0.302-0.759,0.553-1.529,0.753-2.311C318.838,104.477,318.966,103.681,319.023,102.87z"/>
				<path style="fill:#373C47;" d="M336.926,127.431c-0.411,0.376-0.922,0.779-1.532,1.206c-0.611,0.428-1.27,0.822-1.977,1.181
					c-0.708,0.359-1.429,0.659-2.165,0.898c-0.736,0.24-1.435,0.359-2.097,0.359c-0.593,0-1.093-0.083-1.498-0.248
					c-0.405-0.165-0.733-0.396-0.984-0.693c-0.251-0.296-0.431-0.659-0.539-1.087c-0.108-0.428-0.163-0.898-0.163-1.412
					c0-0.719,0.082-1.554,0.248-2.507c0.166-0.953,0.368-1.939,0.608-2.961c0.239-1.021,0.493-2.04,0.762-3.055
					c0.267-1.015,0.505-1.951,0.71-2.807c0.08-0.297,0.24-0.551,0.479-0.762c0.239-0.211,0.51-0.382,0.813-0.514
					c0.302-0.131,0.616-0.228,0.941-0.291c0.325-0.063,0.619-0.094,0.881-0.094c0.479,0,0.804,0.089,0.976,0.266
					c0.171,0.177,0.257,0.414,0.257,0.71c0,0.251-0.058,0.614-0.171,1.087c-0.114,0.474-0.257,1.01-0.428,1.609
					c-0.171,0.599-0.354,1.244-0.548,1.934c-0.194,0.69-0.376,1.381-0.548,2.071c-0.171,0.69-0.314,1.363-0.428,2.019
					c-0.114,0.656-0.171,1.247-0.171,1.771c0,0.513,0.057,0.921,0.171,1.224c0.114,0.302,0.348,0.454,0.702,0.454
					c0.411,0,0.867-0.143,1.369-0.428c0.502-0.285,1.01-0.63,1.523-1.036c0.514-0.405,1.016-0.824,1.506-1.258
					c0.49-0.433,0.924-0.804,1.301-1.112V127.431z M329.275,109.836c0-0.263,0.057-0.559,0.171-0.89
					c0.114-0.331,0.299-0.642,0.556-0.933c0.257-0.29,0.599-0.536,1.027-0.736c0.428-0.199,0.961-0.299,1.601-0.299
					c0.399,0,0.775,0.045,1.129,0.137c0.354,0.092,0.662,0.231,0.924,0.42c0.262,0.188,0.471,0.437,0.624,0.745
					c0.154,0.308,0.232,0.673,0.232,1.095c0,0.388-0.063,0.765-0.189,1.13c-0.125,0.365-0.325,0.69-0.599,0.976
					c-0.274,0.285-0.619,0.516-1.036,0.693c-0.417,0.177-0.915,0.266-1.497,0.266c-1.004,0-1.746-0.237-2.225-0.711
					C329.515,111.254,329.275,110.623,329.275,109.836z"/>
				<path style="fill:#373C47;" d="M339.528,131.077c-0.616,0-1.19-0.271-1.72-0.813c-0.531-0.542-0.993-1.269-1.387-2.182
					c-0.393-0.913-0.702-1.971-0.924-3.175c-0.223-1.204-0.334-2.467-0.334-3.791c0-1.015,0.074-2.119,0.223-3.311
					c0.148-1.192,0.365-2.422,0.65-3.689c0.285-1.267,0.625-2.539,1.018-3.817c0.394-1.278,0.839-2.504,1.335-3.68
					c0.497-1.175,1.036-2.273,1.618-3.295c0.582-1.021,1.192-1.911,1.832-2.67c0.639-0.759,1.306-1.355,2.002-1.789
					c0.696-0.434,1.403-0.65,2.122-0.65c0.491,0,0.896,0.111,1.215,0.334c0.319,0.223,0.57,0.517,0.753,0.882
					c0.183,0.365,0.311,0.778,0.385,1.241c0.074,0.462,0.111,0.933,0.111,1.412c0,1.073-0.123,2.165-0.368,3.277
					c-0.246,1.113-0.576,2.231-0.993,3.355c-0.417,1.124-0.898,2.25-1.446,3.38c-0.547,1.129-1.118,2.25-1.711,3.363
					c-0.593,1.113-1.189,2.208-1.789,3.287c-0.599,1.078-1.161,2.131-1.686,3.158c-0.057,0.114-0.117,0.263-0.18,0.445
					c-0.063,0.183-0.123,0.379-0.18,0.59c-0.057,0.211-0.114,0.436-0.171,0.676c-0.058,0.24-0.103,0.474-0.137,0.702v0.24
					c0,0.297,0.031,0.585,0.094,0.864c0.063,0.28,0.14,0.531,0.231,0.753c0.091,0.223,0.189,0.4,0.291,0.531
					c0.103,0.131,0.2,0.197,0.291,0.197c0.217,0,0.465-0.045,0.745-0.137c0.279-0.091,0.576-0.214,0.89-0.368
					c0.313-0.154,0.636-0.331,0.967-0.531c0.331-0.199,0.65-0.402,0.958-0.607c0.719-0.479,1.472-1.033,2.259-1.66l1.403,3.594
					c-1.016,0.73-2.02,1.381-3.012,1.951c-0.434,0.24-0.881,0.477-1.344,0.71c-0.462,0.234-0.927,0.442-1.394,0.624
					c-0.468,0.183-0.924,0.328-1.37,0.437C340.332,131.023,339.916,131.077,339.528,131.077z M339.545,117.384
					c0.513-0.913,1.058-1.94,1.634-3.081c0.576-1.141,1.121-2.316,1.635-3.526c0.513-1.209,0.958-2.415,1.335-3.62
					c0.376-1.204,0.616-2.325,0.719-3.363c0-0.331-0.009-0.613-0.026-0.847c-0.017-0.234-0.071-0.351-0.163-0.351
					c-0.331,0-0.688,0.214-1.069,0.642c-0.383,0.428-0.765,1.007-1.147,1.737c-0.382,0.73-0.747,1.58-1.095,2.55
					c-0.348,0.97-0.659,2.003-0.933,3.098c-0.274,1.095-0.491,2.222-0.65,3.38C339.625,115.162,339.545,116.289,339.545,117.384z"/>
				<path style="fill:#373C47;" d="M351.337,131.077c-1.073,0-2.011-0.194-2.816-0.582c-0.804-0.388-1.475-0.91-2.011-1.566
					c-0.537-0.656-0.939-1.414-1.207-2.276c-0.268-0.861-0.402-1.766-0.402-2.713c0-0.639,0.063-1.315,0.188-2.028
					c0.125-0.713,0.317-1.412,0.574-2.097c0.256-0.685,0.579-1.337,0.967-1.959c0.388-0.622,0.841-1.17,1.361-1.643
					c0.519-0.474,1.101-0.85,1.746-1.13c0.645-0.279,1.361-0.419,2.148-0.419c0.639,0,1.232,0.103,1.78,0.308
					c0.547,0.206,1.024,0.494,1.429,0.865c0.405,0.371,0.721,0.819,0.95,1.343c0.228,0.525,0.342,1.113,0.342,1.763
					c0,0.707-0.174,1.414-0.522,2.122c-0.348,0.707-0.83,1.375-1.446,2.002c-0.616,0.628-1.35,1.187-2.199,1.677
					c-0.85,0.491-1.772,0.873-2.764,1.147c0.171,0.308,0.339,0.565,0.505,0.77c0.165,0.206,0.333,0.366,0.505,0.479
					c0.171,0.114,0.351,0.194,0.539,0.24c0.189,0.045,0.391,0.068,0.608,0.068c0.685,0,1.406-0.137,2.165-0.411
					c0.758-0.274,1.498-0.616,2.216-1.027c0.719-0.411,1.397-0.858,2.037-1.343c0.639-0.485,1.181-0.944,1.626-1.378l2.208,2.293
					c-1.004,1.039-2.071,1.957-3.201,2.756c-0.491,0.342-1.018,0.679-1.583,1.01c-0.565,0.331-1.158,0.625-1.78,0.881
					c-0.622,0.257-1.267,0.462-1.934,0.616C352.698,130.999,352.022,131.077,351.337,131.077z M349.061,123.032
					c0.411,0,0.858-0.105,1.343-0.316c0.485-0.211,0.936-0.482,1.352-0.813c0.417-0.331,0.768-0.69,1.053-1.079
					c0.285-0.388,0.428-0.764,0.428-1.129c0-0.514-0.094-0.936-0.282-1.267c-0.188-0.33-0.419-0.496-0.693-0.496
					c-0.491,0-0.91,0.091-1.258,0.273c-0.348,0.183-0.639,0.419-0.873,0.71s-0.422,0.622-0.565,0.993
					c-0.143,0.371-0.251,0.745-0.325,1.121c-0.075,0.377-0.123,0.742-0.145,1.095C349.072,122.479,349.061,122.781,349.061,123.032z
					"/>
			</g>
			<g>
				<path style="fill:#EC642B;" d="M290.864,141.924c0.607-3.576,0.584-6.087-0.07-7.537c-0.234-0.467-0.503-0.771-0.806-0.911
					c-0.304-0.117-0.678-0.093-1.122,0.07c-1.192,0.444-2.413,1.589-3.663,3.436c-1.25,1.846-2.121,3.973-2.611,6.379
					c-0.514,2.688-0.444,4.843,0.21,6.467c0.654,1.624,1.635,2.635,2.944,3.032c1.332,0.398,2.833,0.152,4.504-0.736
					c1.67-0.888,3.219-2.454,4.645-4.697c0.14-0.233,0.338-0.379,0.596-0.438c0.257-0.058,0.496-0.018,0.719,0.122
					c0.222,0.14,0.362,0.339,0.42,0.596c0.058,0.257,0.018,0.491-0.123,0.701c-1.589,2.524-3.412,4.341-5.468,5.451
					c-2.057,1.11-4.008,1.385-5.854,0.824c-1.893-0.607-3.248-1.951-4.066-4.031c-0.841-2.056-0.958-4.604-0.351-7.642
					c0.537-2.687,1.519-5.082,2.944-7.186c1.425-2.126,2.921-3.47,4.487-4.031c0.888-0.35,1.706-0.374,2.454-0.07
					c0.818,0.304,1.438,0.935,1.858,1.893c0.818,1.8,0.899,4.662,0.246,8.588c-0.047,0.257-0.175,0.462-0.386,0.613
					c-0.21,0.152-0.444,0.21-0.701,0.175c-0.257-0.035-0.461-0.158-0.613-0.368C290.904,142.415,290.84,142.182,290.864,141.924z"/>
				<path style="fill:#EC642B;" d="M296.297,154.613c0.023-0.912,0.035-1.437,0.035-1.578c0.023-0.514,0.046-0.899,0.07-1.157
					c0-5.585,0.233-10.048,0.701-13.39c0.187-1.285,0.502-2.419,0.946-3.4c0.351-0.748,0.824-1.355,1.42-1.823
					c0.596-0.467,1.314-0.537,2.156-0.21c1.004,0.351,1.554,1.122,1.647,2.313c0.07,0.795-0.082,1.765-0.456,2.91
					c-0.304,0.888-0.69,1.776-1.157,2.664c-0.468,0.888-0.876,1.554-1.227,1.998c-0.397,0.491-0.748,0.83-1.052,1.016
					c-0.14,0.094-0.444,0.234-0.911,0.421c-0.047,0.865-0.082,1.776-0.105,2.734l0.386-0.631c0.654-1.052,1.32-1.846,1.998-2.383
					c0.958-0.794,1.893-1.075,2.804-0.841c0.981,0.234,1.565,1.11,1.752,2.629c0.07,0.561,0.082,1.741,0.035,3.54
					c-0.023,1.472,0.035,2.512,0.175,3.12c0.14,0.584,0.362,0.889,0.666,0.912c0.771,0.094,1.554-0.526,2.349-1.858
					c0.303-0.514,0.654-1.285,1.052-2.313c0.117-0.327,0.28-0.853,0.491-1.577c0.233-0.748,0.42-1.32,0.56-1.718
					c0.093-0.257,0.257-0.438,0.491-0.543c0.233-0.105,0.473-0.11,0.719-0.018c0.245,0.094,0.42,0.258,0.526,0.491
					c0.105,0.234,0.11,0.468,0.018,0.701c-0.117,0.351-0.281,0.889-0.491,1.612c-0.21,0.771-0.398,1.356-0.561,1.753
					c-0.42,1.099-0.818,1.963-1.192,2.594c-1.215,2.01-2.606,2.933-4.171,2.769c-1.191-0.14-1.951-0.934-2.278-2.383
					c-0.187-0.771-0.269-1.963-0.245-3.576c0.046-1.682,0.035-2.78-0.035-3.295c-0.094-0.701-0.21-1.04-0.351-1.016
					c-0.28-0.07-0.654,0.082-1.122,0.456c-0.514,0.42-1.052,1.075-1.612,1.963c-0.491,0.771-0.924,1.577-1.297,2.418
					c-0.374,0.841-0.619,1.484-0.736,1.928v0.07v2.875c0,0.257-0.094,0.479-0.28,0.666c-0.188,0.186-0.409,0.28-0.666,0.28
					c-0.351,0-0.62-0.152-0.806-0.456C296.378,155.092,296.297,154.871,296.297,154.613z M298.61,141.258
					c0.07-0.07,0.163-0.198,0.28-0.386c0.233-0.303,0.526-0.794,0.876-1.472c0.351-0.678,0.631-1.367,0.841-2.068
					c0.257-0.794,0.362-1.425,0.315-1.893c-0.023-0.351-0.129-0.561-0.315-0.631c-0.351-0.117-0.689,0.199-1.017,0.946
					c-0.328,0.725-0.549,1.566-0.666,2.524C298.786,139.213,298.681,140.206,298.61,141.258z"/>
				<path style="fill:#EC642B;" d="M317.573,145.254c0.023,0,0.046,0.012,0.07,0.035c0.187,0.188,0.292,0.421,0.315,0.701
					c0.023,0.21-0.012,0.456-0.106,0.736c0,0.047-0.059,0.187-0.175,0.42l-0.035,0.175c-0.141,0.748-0.21,1.134-0.21,1.157
					c-0.047,0.397-0.082,0.795-0.105,1.192c-0.047,0.444-0.07,0.701-0.07,0.771c0,0.935,0.093,1.683,0.28,2.244
					c0.257,0.631,0.643,1.016,1.157,1.157c0.467,0.117,0.9,0,1.297-0.351c0.421-0.374,0.841-1.017,1.262-1.928
					c0.303-0.677,0.619-1.577,0.946-2.699c0.444-1.402,0.689-2.161,0.736-2.279c0.093-0.257,0.257-0.438,0.491-0.543
					c0.233-0.105,0.473-0.111,0.718-0.018c0.246,0.094,0.421,0.257,0.526,0.491c0.105,0.234,0.111,0.468,0.018,0.701
					c-0.023,0.093-0.246,0.83-0.666,2.208c-0.351,1.169-0.701,2.15-1.052,2.944c-0.514,1.146-1.099,1.998-1.752,2.559
					c-0.912,0.794-1.917,1.04-3.015,0.736c-1.169-0.328-1.975-1.11-2.418-2.349c-0.07-0.164-0.129-0.351-0.175-0.561
					c-0.188,0.328-0.386,0.62-0.596,0.876c-0.725,0.981-1.484,1.589-2.278,1.823c-1.099,0.327-2.092-0.035-2.979-1.087
					c-0.654-0.771-0.946-1.951-0.876-3.54c0.07-1.355,0.385-2.734,0.946-4.136c0.607-1.519,1.367-2.641,2.278-3.365
					c1.238-0.934,2.524-1.04,3.856-0.316c0.747,0.444,1.227,0.9,1.437,1.367c0.07,0.21,0.128,0.468,0.175,0.771V145.254z
					 M315.786,146.27c-0.023-0.163-0.059-0.456-0.105-0.876c-0.023-0.163-0.047-0.268-0.07-0.315
					c0.023-0.047-0.164-0.175-0.561-0.386c-0.608-0.351-1.204-0.304-1.788,0.14c-0.654,0.514-1.215,1.367-1.683,2.559
					c-0.491,1.168-0.76,2.348-0.806,3.54c-0.047,1.099,0.105,1.846,0.455,2.244c0.351,0.397,0.678,0.549,0.982,0.456
					c0.374-0.117,0.807-0.502,1.297-1.157c0.443-0.584,0.853-1.285,1.227-2.103c0.374-0.794,0.631-1.438,0.771-1.928
					c0.023-0.093,0.047-0.175,0.07-0.245v-0.246c0.07-0.607,0.14-1.098,0.211-1.472c0-0.07,0.011-0.128,0.035-0.175
					C315.821,146.283,315.809,146.27,315.786,146.27z"/>
				<path style="fill:#EC642B;" d="M323.672,142.275c-0.771-0.07-1.59-0.21-2.454-0.421c-0.257-0.046-0.456-0.181-0.596-0.403
					c-0.14-0.222-0.181-0.462-0.123-0.719c0.058-0.257,0.198-0.456,0.42-0.596c0.222-0.14,0.461-0.175,0.719-0.105
					c0.864,0.188,1.67,0.315,2.418,0.386c0.444-1.916,0.982-3.949,1.613-6.099c0.07-0.233,0.222-0.415,0.456-0.544
					c0.233-0.128,0.473-0.158,0.718-0.088c0.246,0.07,0.432,0.223,0.561,0.456c0.128,0.234,0.158,0.479,0.088,0.736
					c-0.585,1.917-1.075,3.763-1.473,5.539c0.748-0.047,1.554-0.163,2.419-0.351c0.257-0.07,0.496-0.035,0.718,0.105
					c0.222,0.14,0.362,0.339,0.421,0.596c0.058,0.257,0.018,0.497-0.123,0.718c-0.141,0.223-0.339,0.357-0.596,0.403
					c-1.145,0.257-2.232,0.409-3.26,0.455c-0.795,3.856-1.064,6.847-0.806,8.974c0.093,0.771,0.274,1.384,0.543,1.84
					c0.268,0.456,0.555,0.742,0.858,0.859c0.701,0.257,1.438-0.257,2.208-1.542c0.841-1.402,1.507-3.4,1.998-5.994
					c0.07-0.257,0.21-0.461,0.42-0.613c0.21-0.152,0.444-0.198,0.701-0.14c0.257,0.059,0.461,0.192,0.613,0.403
					c0.152,0.21,0.205,0.444,0.158,0.701c-0.56,2.828-1.32,5.036-2.278,6.625c-0.608,1.005-1.303,1.723-2.085,2.156
					c-0.783,0.432-1.584,0.496-2.401,0.193c-0.725-0.281-1.32-0.806-1.788-1.578c-0.444-0.771-0.725-1.67-0.841-2.699
					C322.621,149.215,322.878,146.13,323.672,142.275z"/>
			</g>
		</g>
	</g>
</g>
</svg>
